<svg width="21" height="20" viewBox="0 0 21 20" fill="none" xmlns="http://www.w3.org/2000/svg">
<path d="M2.16797 17.9123C3.24672 17.9922 4.15436 17.084 4.94574 17.084C5.73713 17.084 7.02191 17.9217 7.72353 17.9123C8.56546 17.9194 9.55163 17.084 10.5013 17.084C11.451 17.084 12.4371 17.9194 13.279 17.9123C14.3578 17.9922 15.2655 17.084 16.0569 17.084C16.8482 17.084 18.133 17.9217 18.8346 17.9123" stroke="#652EDA" stroke-width="1.5" stroke-linecap="round" stroke-linejoin="round"/>
<path d="M5.5 17.0833C4.31845 15.6113 3.48572 13.7273 3.13111 12.729C3.01866 12.4124 2.96245 12.2542 3.02774 12.1028C3.09302 11.9516 3.25314 11.8807 3.57336 11.7388L9.81433 8.97433C10.152 8.82475 10.3208 8.75 10.5 8.75C10.6792 8.75 10.848 8.82475 11.1857 8.97433L17.4267 11.7388C17.7468 11.8807 17.907 11.9516 17.9722 12.1028C18.0376 12.2542 17.9813 12.4124 17.8689 12.729C17.5142 13.7273 16.6816 15.6113 15.5 17.0833" stroke="#652EDA" stroke-width="1.5" stroke-linecap="round" stroke-linejoin="round"/>
<path d="M5.5 10.8327L5.67992 8.49368C5.79223 7.03364 5.84839 6.30361 6.32763 5.85982C6.80688 5.41602 7.53907 5.41602 9.00342 5.41602H11.9966C13.4609 5.41602 14.1931 5.41602 14.6723 5.85982C15.1516 6.30361 15.2077 7.03364 15.3201 8.49368L15.5 10.8327" stroke="#652EDA" stroke-width="1.5" stroke-linecap="round" stroke-linejoin="round"/>
<path d="M7.58203 5.41732L7.72496 4.2739C7.8553 3.23116 7.92047 2.70979 8.27492 2.39688C8.62937 2.08398 9.15478 2.08398 10.2056 2.08398H10.7918C11.8426 2.08398 12.368 2.08398 12.7224 2.39688C13.0769 2.70979 13.1421 3.23116 13.2724 4.2739L13.4154 5.41732" stroke="#652EDA" stroke-width="1.5" stroke-linecap="round" stroke-linejoin="round"/>
</svg>
