<svg width="21" height="21" viewBox="0 0 21 21" fill="none" xmlns="http://www.w3.org/2000/svg">
<path d="M3.41797 10.916V16.7493C3.41797 17.1376 3.41797 17.3318 3.4814 17.4849C3.56598 17.6891 3.72821 17.8513 3.9324 17.9359C4.08554 17.9993 4.27969 17.9993 4.66797 17.9993C5.05625 17.9993 5.25039 17.9993 5.40354 17.9359C5.60773 17.8513 5.76996 17.6891 5.85454 17.4849C5.91797 17.3318 5.91797 17.1376 5.91797 16.7493V10.916C5.91797 10.5278 5.91797 10.3336 5.85454 10.1804C5.76996 9.97627 5.60773 9.81402 5.40354 9.72943C5.25039 9.66602 5.05625 9.66602 4.66797 9.66602C4.27969 9.66602 4.08554 9.66602 3.9324 9.72943C3.72821 9.81402 3.56598 9.97627 3.4814 10.1804C3.41797 10.3336 3.41797 10.5278 3.41797 10.916Z" stroke="#652EDA" stroke-width="1.5" stroke-linecap="square" stroke-linejoin="round"/>
<path d="M9.25 12.584V16.7502C9.25 17.1385 9.25 17.3327 9.31342 17.4858C9.398 17.69 9.56025 17.8522 9.76442 17.9368C9.91758 18.0002 10.1117 18.0002 10.5 18.0002C10.8882 18.0002 11.0824 18.0002 11.2356 17.9368C11.4397 17.8522 11.602 17.69 11.6866 17.4858C11.75 17.3327 11.75 17.1385 11.75 16.7502V12.584C11.75 12.1957 11.75 12.0016 11.6866 11.8484C11.602 11.6442 11.4397 11.482 11.2356 11.3974C11.0824 11.334 10.8882 11.334 10.5 11.334C10.1117 11.334 9.91758 11.334 9.76442 11.3974C9.56025 11.482 9.398 11.6442 9.31342 11.8484C9.25 12.0016 9.25 12.1957 9.25 12.584Z" stroke="#652EDA" stroke-width="1.5" stroke-linecap="square" stroke-linejoin="round"/>
<path d="M15.082 9.25V16.75C15.082 17.1382 15.082 17.3324 15.1454 17.4856C15.23 17.6897 15.3923 17.852 15.5964 17.9366C15.7496 18 15.9438 18 16.332 18C16.7203 18 16.9144 18 17.0676 17.9366C17.2718 17.852 17.434 17.6897 17.5186 17.4856C17.582 17.3324 17.582 17.1382 17.582 16.75V9.25C17.582 8.86175 17.582 8.66758 17.5186 8.51443C17.434 8.31024 17.2718 8.14801 17.0676 8.06343C16.9144 8 16.7203 8 16.332 8C15.9438 8 15.7496 8 15.5964 8.06343C15.3923 8.14801 15.23 8.31024 15.1454 8.51443C15.082 8.66758 15.082 8.86175 15.082 9.25Z" stroke="#652EDA" stroke-width="1.5" stroke-linecap="square" stroke-linejoin="round"/>
<path d="M5.91797 5.91602C5.91797 6.60637 5.35833 7.16602 4.66797 7.16602C3.97761 7.16602 3.41797 6.60637 3.41797 5.91602C3.41797 5.22566 3.97761 4.66602 4.66797 4.66602C5.35833 4.66602 5.91797 5.22566 5.91797 5.91602Z" stroke="#652EDA" stroke-width="1.5"/>
<path d="M17.582 4.25C17.582 4.94036 17.0224 5.5 16.332 5.5C15.6417 5.5 15.082 4.94036 15.082 4.25C15.082 3.55964 15.6417 3 16.332 3C17.0224 3 17.582 3.55964 17.582 4.25Z" stroke="#652EDA" stroke-width="1.5"/>
<path d="M11.75 7.58398C11.75 8.27434 11.1903 8.83398 10.5 8.83398C9.80967 8.83398 9.25 8.27434 9.25 7.58398C9.25 6.89363 9.80967 6.33398 10.5 6.33398C11.1903 6.33398 11.75 6.89363 11.75 7.58398Z" stroke="#652EDA" stroke-width="1.5"/>
<path d="M5.86719 6.25902L9.29605 7.23871M11.5838 6.96192L15.2461 4.86914" stroke="#652EDA" stroke-width="1.5"/>
</svg>
