<svg width="21" height="20" viewBox="0 0 21 20" fill="none" xmlns="http://www.w3.org/2000/svg">
<path d="M2.16797 11.1898V6.66602H18.8346V11.1898C18.8346 14.557 18.8346 16.2406 17.7499 17.2866C16.6651 18.3327 14.9191 18.3327 11.4272 18.3327H9.57539C6.08349 18.3327 4.33755 18.3327 3.25276 17.2866C2.16797 16.2406 2.16797 14.557 2.16797 11.1898Z" stroke="#652EDA" stroke-width="1.5" stroke-linecap="round" stroke-linejoin="round"/>
<path d="M2.16797 6.66602L2.96925 4.74294C3.59069 3.25149 3.90141 2.50577 4.53122 2.08589C5.16103 1.66602 5.9689 1.66602 7.58464 1.66602H13.418C15.0337 1.66602 15.8416 1.66602 16.4714 2.08589C17.1012 2.50577 17.4119 3.25149 18.0334 4.74294L18.8346 6.66602" stroke="#652EDA" stroke-width="1.5" stroke-linecap="round"/>
<path d="M10.5 6.66602V1.66602" stroke="#652EDA" stroke-width="1.5" stroke-linecap="round"/>
<path d="M8.83203 10H12.1654" stroke="#652EDA" stroke-width="1.5" stroke-linecap="round"/>
</svg>
