<svg width="21" height="20" viewBox="0 0 21 20" fill="none" xmlns="http://www.w3.org/2000/svg">
<path d="M9.85594 2.21455L3.60594 4.84622C3.30367 4.97347 3.04567 5.18706 2.86423 5.46025C2.6828 5.73345 2.58599 6.0541 2.58594 6.38205V17.9171H5.08594V8.75039C5.08594 8.52937 5.17374 8.31741 5.33002 8.16113C5.4863 8.00485 5.69826 7.91705 5.91927 7.91705H15.0859C15.307 7.91705 15.5189 8.00485 15.6752 8.16113C15.8315 8.31741 15.9193 8.52937 15.9193 8.75039V17.9171H18.4193V6.38205C18.4192 6.0541 18.3224 5.73345 18.141 5.46025C17.9595 5.18706 17.7015 4.97347 17.3993 4.84622L11.1493 2.21455C10.9446 2.12838 10.7247 2.08398 10.5026 2.08398C10.2805 2.08398 10.0606 2.12838 9.85594 2.21455Z" stroke="#652EDA" stroke-width="1.25" stroke-linecap="square" stroke-linejoin="round"/>
<path d="M9.66406 5.41602H11.3307" stroke="#652EDA" stroke-width="1.25" stroke-linecap="round"/>
<path d="M12.1667 12.916H8.83333C8.61232 12.916 8.40036 13.0038 8.24408 13.1601C8.0878 13.3164 8 13.5283 8 13.7493V17.0827C8 17.3037 8.0878 17.5157 8.24408 17.6719C8.40036 17.8282 8.61232 17.916 8.83333 17.916H12.1667C12.3877 17.916 12.5996 17.8282 12.7559 17.6719C12.9122 17.5157 13 17.3037 13 17.0827V13.7493C13 13.5283 12.9122 13.3164 12.7559 13.1601C12.5996 13.0038 12.3877 12.916 12.1667 12.916Z" stroke="#652EDA" stroke-width="1.25" stroke-linecap="square" stroke-linejoin="round"/>
</svg>
