<svg width="21" height="20" viewBox="0 0 21 20" fill="none" xmlns="http://www.w3.org/2000/svg">
<path d="M8.83463 1.66602C8.17159 1.66602 7.53571 1.92941 7.06687 2.39825C6.59803 2.86709 6.33463 3.50297 6.33463 4.16602V4.99935H3.0013C2.78029 4.99935 2.56833 5.08715 2.41205 5.24343C2.25577 5.39971 2.16797 5.61167 2.16797 5.83268V9.16601H3.0013C3.32961 9.16601 3.6547 9.23068 3.95801 9.35632C4.26132 9.48195 4.53692 9.6661 4.76907 9.89825C5.00121 10.1304 5.18536 10.406 5.311 10.7093C5.43664 11.0126 5.5013 11.3377 5.5013 11.666C5.5013 11.9943 5.43664 12.3194 5.311 12.6227C5.18536 12.926 5.00121 13.2016 4.76907 13.4338C4.53692 13.6659 4.26132 13.8501 3.95801 13.9757C3.6547 14.1013 3.32961 14.166 3.0013 14.166H2.16797V17.4993C2.16797 17.7204 2.25577 17.9323 2.41205 18.0886C2.56833 18.2449 2.78029 18.3327 3.0013 18.3327H6.33463V17.4993C6.33463 16.8363 6.59803 16.2004 7.06687 15.7316C7.53571 15.2627 8.17159 14.9993 8.83463 14.9993C9.49768 14.9993 10.1336 15.2627 10.6024 15.7316C11.0712 16.2004 11.3346 16.8363 11.3346 17.4993V18.3327H14.668C14.889 18.3327 15.1009 18.2449 15.2572 18.0886C15.4135 17.9323 15.5013 17.7204 15.5013 17.4993V14.166H16.3346C16.6629 14.166 16.988 14.1013 17.2913 13.9757C17.5947 13.8501 17.8703 13.6659 18.1024 13.4338C18.3345 13.2016 18.5187 12.926 18.6443 12.6227C18.77 12.3194 18.8346 11.9943 18.8346 11.666C18.8346 11.3377 18.77 11.0126 18.6443 10.7093C18.5187 10.406 18.3345 10.1304 18.1024 9.89825C17.8703 9.6661 17.5947 9.48195 17.2913 9.35632C16.988 9.23068 16.6629 9.16601 16.3346 9.16601H15.5013V5.83268C15.5013 5.61167 15.4135 5.39971 15.2572 5.24343C15.1009 5.08715 14.889 4.99935 14.668 4.99935H11.3346V4.16602C11.3346 3.50297 11.0712 2.86709 10.6024 2.39825C10.1336 1.92941 9.49768 1.66602 8.83463 1.66602Z" stroke="#652EDA" stroke-width="1.5" stroke-linejoin="round"/>
</svg>
