<svg width="21" height="20" viewBox="0 0 21 20" fill="none" xmlns="http://www.w3.org/2000/svg">
<path d="M10.5 6.25H11.75C12.0815 6.25 12.3995 6.3817 12.6339 6.61612C12.8683 6.85054 13 7.16848 13 7.5M10.5 6.25H9.25C8.91848 6.25 8.60054 6.3817 8.36612 6.61612C8.1317 6.85054 8 7.16848 8 7.5V7.91667C8 8.24819 8.1317 8.56613 8.36612 8.80055C8.60054 9.03497 8.91848 9.16667 9.25 9.16667H11.75C12.0815 9.16667 12.3995 9.29836 12.6339 9.53278C12.8683 9.7672 13 10.0851 13 10.4167V10.8333C13 11.1649 12.8683 11.4828 12.6339 11.7172C12.3995 11.9516 12.0815 12.0833 11.75 12.0833H10.5M10.5 6.25V5M10.5 12.0833H9.25C8.91848 12.0833 8.60054 11.9516 8.36612 11.7172C8.1317 11.4828 8 11.1649 8 10.8333M10.5 12.0833V13.3333" stroke="#652EDA" stroke-width="1.5" stroke-linecap="round" stroke-linejoin="round"/>
<path d="M9.61536 17.926L8.0237 16.9218C7.6187 16.6668 7.41703 16.5402 7.19286 16.5327C6.95036 16.5243 6.74453 16.6468 6.30786 16.9218C5.8187 17.2302 4.8462 18.0802 4.2162 17.6752C3.83203 17.4268 3.83203 16.7977 3.83203 15.5377V6.66601C3.83203 4.30935 3.83203 3.13018 4.5212 2.39852C5.21036 1.66685 6.31953 1.66602 8.53786 1.66602H12.4595C14.6779 1.66602 15.787 1.66602 16.4762 2.39852C17.1654 3.13018 17.1654 4.30935 17.1654 6.66601V15.5377C17.1654 16.7968 17.1654 17.4268 16.7804 17.6752C16.1512 18.0802 15.1787 17.2302 14.6895 16.9218C14.2854 16.6668 14.0837 16.5402 13.8587 16.5327C13.617 16.5243 13.4112 16.6468 12.9745 16.9218L11.382 17.926C10.952 18.1968 10.7379 18.3327 10.4987 18.3327C10.2595 18.3327 10.0445 18.1968 9.61536 17.926Z" stroke="#652EDA" stroke-width="1.5" stroke-linecap="round" stroke-linejoin="round"/>
</svg>
