<svg width="20" height="20" viewBox="0 0 20 20" fill="none" xmlns="http://www.w3.org/2000/svg">
<g clip-path="url(#clip0_10320_161158)">
<path d="M7.5013 17.4994C8.88213 18.6102 11.1205 18.6102 12.5013 17.4994M1.66797 13.3327V9.99935C1.66797 5.39685 5.3988 1.66602 10.0013 1.66602C14.6038 1.66602 18.3346 5.39685 18.3346 9.99935V13.3327" stroke="#652EDA" stroke-width="1.5" stroke-linecap="round" stroke-linejoin="round"/>
<path d="M4.6013 10.2181L5.3738 10.6048C5.5122 10.6739 5.62862 10.7803 5.71001 10.9118C5.7914 11.0434 5.83455 11.1951 5.83463 11.3498V15.3198C5.83455 15.4745 5.7914 15.6261 5.71001 15.7577C5.62862 15.8893 5.5122 15.9956 5.3738 16.0648L4.60047 16.4523C4.4707 16.5193 4.32464 16.5483 4.17912 16.5359C4.0336 16.5235 3.89454 16.4703 3.77797 16.3823C3.0763 15.8348 1.66797 14.5848 1.66797 13.3348C1.66797 12.0848 3.07547 10.8339 3.77797 10.2873C3.89454 10.1993 4.0336 10.146 4.17912 10.1337C4.32464 10.1213 4.4707 10.1503 4.60047 10.2173M16.2246 10.2873C16.1081 10.1993 15.969 10.146 15.8235 10.1337C15.678 10.1213 15.5319 10.1503 15.4021 10.2173L14.6288 10.6048C14.4904 10.6739 14.374 10.7803 14.2926 10.9118C14.2112 11.0434 14.168 11.1951 14.168 11.3498V15.3198C14.168 15.4745 14.2112 15.6261 14.2926 15.7577C14.374 15.8893 14.4904 15.9956 14.6288 16.0648L15.4021 16.4523C15.6688 16.5856 15.9888 16.5656 16.2246 16.3823C16.9263 15.8348 18.3346 14.5848 18.3346 13.3348C18.3346 12.0848 16.9271 10.8339 16.2246 10.2873Z" stroke="#652EDA" stroke-width="1.5" stroke-linecap="round" stroke-linejoin="round"/>
</g>
<defs>
<clipPath id="clip0_10320_161158">
<rect width="20" height="20" fill="white"/>
</clipPath>
</defs>
</svg>
