<svg width="21" height="20" viewBox="0 0 21 20" fill="none" xmlns="http://www.w3.org/2000/svg">
<path d="M5.31973 3.485C5.85973 3.06917 6.12973 2.86167 6.44139 2.7275C6.58306 2.66694 6.72945 2.61806 6.88056 2.58083C7.21306 2.5 7.56556 2.5 8.27056 2.5H12.7322C13.4372 2.5 13.7906 2.5 14.1222 2.58083C14.2739 2.61806 14.4203 2.66694 14.5614 2.7275C14.8731 2.86083 15.1431 3.06917 15.6831 3.485C17.4714 4.86167 18.3664 5.55083 18.6731 6.4425C18.8089 6.83917 18.8597 7.25583 18.8231 7.67083C18.7397 8.6025 18.0331 9.455 16.6206 11.1608L13.2931 15.1792C12.0122 16.7267 11.3714 17.5 10.5014 17.5C9.63139 17.5 8.99056 16.7267 7.70973 15.1792L4.38223 11.1608C2.96973 9.455 2.26389 8.6025 2.17973 7.67083C2.14258 7.25539 2.19369 6.83679 2.32973 6.4425C2.63639 5.55083 3.53139 4.8625 5.31973 3.485Z" stroke="#652EDA" stroke-width="1.25"/>
<path d="M8.83203 7.08301H12.1654" stroke="#652EDA" stroke-width="1.25" stroke-linecap="round" stroke-linejoin="round"/>
</svg>
