<svg width="20" height="20" viewBox="0 0 20 20" fill="none" xmlns="http://www.w3.org/2000/svg">
<path d="M6.66667 13.3333L13.9333 12.7275C16.2075 12.5383 16.7175 12.0417 16.9692 9.77417L17.5 5M5 5H18.3333" stroke="#652EDA" stroke-width="1.25" stroke-linecap="round"/>
<path d="M4.9987 18.3333C5.91917 18.3333 6.66536 17.5871 6.66536 16.6667C6.66536 15.7462 5.91917 15 4.9987 15C4.07822 15 3.33203 15.7462 3.33203 16.6667C3.33203 17.5871 4.07822 18.3333 4.9987 18.3333Z" stroke="#652EDA" stroke-width="1.25"/>
<path d="M14.1667 18.3333C15.0871 18.3333 15.8333 17.5871 15.8333 16.6667C15.8333 15.7462 15.0871 15 14.1667 15C13.2462 15 12.5 15.7462 12.5 16.6667C12.5 17.5871 13.2462 18.3333 14.1667 18.3333Z" stroke="#652EDA" stroke-width="1.25"/>
<path d="M6.66797 16.667H12.5013M1.66797 1.66699H2.47297C3.26047 1.66699 3.9463 2.18783 4.13714 2.92949L6.61797 12.5637C6.74297 13.0512 6.63547 13.567 6.3263 13.9687L5.52714 15.0003" stroke="#652EDA" stroke-width="1.25" stroke-linecap="round"/>
</svg>
