<svg width="21" height="20" viewBox="0 0 21 20" fill="none" xmlns="http://www.w3.org/2000/svg">
<path d="M5.89744 12.1737L4.96077 6.08699C4.92425 5.84948 4.93951 5.60687 5.00553 5.37581C5.07154 5.14475 5.18674 4.9307 5.34323 4.74833C5.49971 4.56596 5.69379 4.41958 5.91214 4.31924C6.1305 4.2189 6.36797 4.16696 6.60827 4.16699H14.3899C14.6302 4.16708 14.8676 4.21911 15.0858 4.3195C15.3041 4.4199 15.498 4.56629 15.6544 4.74864C15.8108 4.931 15.9259 5.14501 15.9919 5.37601C16.0579 5.60702 16.0731 5.84955 16.0366 6.08699L15.1008 12.1737C14.9797 12.9607 14.5809 13.6785 13.9765 14.1969C13.3721 14.7154 12.6021 15.0004 11.8058 15.0003H9.19244C8.39612 15.0004 7.62608 14.7154 7.02168 14.1969C6.41729 13.6785 6.01848 12.9607 5.89744 12.1737Z" stroke="#652EDA" stroke-width="1.5"/>
<path d="M10.5 7.08366L8.83333 9.58366H12.1667L10.5 12.0837M8 1.66699V4.16699M13 1.66699V4.16699M10.5 15.0003V18.3337" stroke="#652EDA" stroke-width="1.5" stroke-linecap="round" stroke-linejoin="round"/>
</svg>
