<svg width="21" height="20" viewBox="0 0 21 20" fill="none" xmlns="http://www.w3.org/2000/svg">
<path d="M10.5 10.8329L13 12.4996M10.5 10.8329C6.76667 13.1212 4.56833 12.3162 3 11.5412C3 13.2746 3.5675 14.7246 4.41333 15.8329M10.5 10.8329L13 7.01124M13 12.4996C12.8175 14.1971 11.6892 17.6537 8.96333 18.3329C7.45083 18.3329 5.64 17.4412 4.41333 15.8329M13 12.4996L15.165 8.33291M4.41333 15.8329C5.27833 15.9721 7.4 15.9996 8.96333 14.9996M13 7.01124L16.1733 2.16041C16.2971 1.94301 16.4994 1.78126 16.7387 1.70842C16.978 1.63557 17.2361 1.65716 17.46 1.76874C17.5746 1.82562 17.6768 1.90456 17.7608 2.00104C17.8448 2.09752 17.909 2.20964 17.9496 2.33097C17.9901 2.45229 18.0063 2.58044 17.9973 2.70805C17.9882 2.83565 17.954 2.96021 17.8967 3.07458L15.165 8.33291M13 7.01124L15.165 8.33291" stroke="#652EDA" stroke-width="1.25" stroke-linecap="round" stroke-linejoin="round"/>
<path d="M5.5 3.33301L5.68417 3.83051C5.92583 4.48384 6.04667 4.81051 6.28417 5.04801C6.5225 5.28634 6.84917 5.40717 7.5025 5.64801L8 5.83301L7.5025 6.01717C6.84917 6.25884 6.5225 6.37967 6.285 6.61717C6.04667 6.85551 5.92583 7.18217 5.685 7.83551L5.5 8.33301L5.31583 7.83551C5.07417 7.18217 4.95333 6.85551 4.71583 6.61801C4.4775 6.37967 4.15083 6.25884 3.4975 6.01801L3 5.83301L3.4975 5.64884C4.15083 5.40717 4.4775 5.28634 4.715 5.04884C4.95333 4.81051 5.07417 4.48384 5.315 3.83051L5.5 3.33301Z" stroke="#652EDA" stroke-width="1.25" stroke-linejoin="round"/>
</svg>
