<svg width="21" height="20" viewBox="0 0 21 20" fill="none" xmlns="http://www.w3.org/2000/svg">
<path d="M16.4188 15H7.13709C4.69209 15 3.47042 15 2.72459 14.0692C1.31042 12.3025 2.92209 7.6025 3.89792 5.83333C4.22876 7.83333 7.63626 7.7775 8.87709 7.5C8.05042 5.83417 9.15376 5.27833 9.70542 5H9.70709C12.1679 7.91667 17.4304 9.50333 18.7196 12.6825C19.2771 14.0558 17.6888 15 16.4188 15Z" stroke="#652EDA" stroke-linecap="round" stroke-linejoin="round"/>
<path d="M2.16797 11.667C5.6388 12.8587 7.77713 13.2037 10.5196 12.337C11.3505 12.0745 11.7655 11.9428 12.0246 11.9603C12.283 11.9787 12.8121 12.2245 13.8688 12.7178C15.188 13.3328 16.9988 13.687 18.8346 12.7987" stroke="#652EDA" stroke-linejoin="round"/>
<path d="M11.75 7.91699L13 6.66699M13.4167 9.16699L14.6667 7.91699" stroke="#652EDA" stroke-linecap="round" stroke-linejoin="round"/>
</svg>
