<svg width="21" height="20" viewBox="0 0 21 20" fill="none" xmlns="http://www.w3.org/2000/svg">
<path d="M12.1667 15.0003C15.8486 15.0003 18.8333 12.0156 18.8333 8.33366C18.8333 4.65176 15.8486 1.66699 12.1667 1.66699C8.48477 1.66699 5.5 4.65176 5.5 8.33366C5.5 12.0156 8.48477 15.0003 12.1667 15.0003Z" stroke="#652EDA" stroke-width="1.5" stroke-linecap="round"/>
<path d="M3.13178 9.16699C2.52232 10.0983 2.16797 11.2116 2.16797 12.4077C2.16797 15.6805 4.82112 18.3337 8.09394 18.3337C9.29002 18.3337 10.4033 17.9793 11.3346 17.3699" stroke="#652EDA" stroke-width="1.5" stroke-linecap="round"/>
<path d="M12.9041 5C12.9041 4.58579 12.5683 4.25 12.1541 4.25C11.7399 4.25 11.4041 4.58579 11.4041 5L12.9041 5ZM11.4041 11.6667C11.4041 12.0809 11.7399 12.4167 12.1541 12.4167C12.5683 12.4167 12.9041 12.0809 12.9041 11.6667H11.4041ZM12.9349 6.99922C13.0163 7.40536 13.4115 7.66862 13.8177 7.58723C14.2238 7.50584 14.4871 7.11062 14.4057 6.70449L12.9349 6.99922ZM11.2327 9.65484C11.1444 9.25015 10.7447 8.99372 10.34 9.08208C9.93534 9.17043 9.67891 9.57011 9.76726 9.97479L11.2327 9.65484ZM12.1541 7.48746C11.6599 7.48746 11.4808 7.39211 11.4322 7.35333C11.4221 7.34527 11.3648 7.31146 11.3648 7.08519H9.86479C9.86479 7.60136 10.0174 8.14368 10.4971 8.52615C10.9382 8.87789 11.5288 8.98746 12.1541 8.98746V7.48746ZM11.3648 7.08519C11.3648 6.84916 11.6195 6.49089 12.1541 6.49089V4.99089C10.9884 4.99089 9.86479 5.83635 9.86479 7.08519H11.3648ZM13.0833 9.58176C13.0833 9.83653 12.9991 9.93719 12.9069 10.0027C12.7767 10.0953 12.5314 10.1761 12.1541 10.1761V11.6761C12.7042 11.6761 13.2985 11.5648 13.7761 11.2253C14.2917 10.8587 14.5833 10.2872 14.5833 9.58176H13.0833ZM12.1541 8.98746C12.6559 8.98746 12.8721 9.07902 12.9552 9.14321C12.9951 9.17396 13.0833 9.25262 13.0833 9.58176H14.5833C14.5833 8.95069 14.3917 8.35719 13.8718 7.95584C13.3952 7.58794 12.7718 7.48746 12.1541 7.48746V8.98746ZM12.9041 5.74089L12.9041 5L11.4041 5L11.4041 5.74088L12.9041 5.74089ZM11.4041 10.9261V11.6667H12.9041V10.9261H11.4041ZM12.1541 6.49089C12.6207 6.49089 12.8907 6.77848 12.9349 6.99922L14.4057 6.70449C14.1969 5.66279 13.2055 4.99089 12.1541 4.99089V6.49089ZM12.1541 10.1761C11.5691 10.1761 11.2743 9.84514 11.2327 9.65484L9.76726 9.97479C10.0014 11.0472 11.0828 11.6761 12.1541 11.6761V10.1761Z" fill="#652EDA"/>
</svg>
