<svg width="21" height="20" viewBox="0 0 21 20" fill="none" xmlns="http://www.w3.org/2000/svg">
<path d="M10.2388 2.21358L3.98875 4.84524C3.68649 4.97249 3.42848 5.18608 3.24705 5.45928C3.06561 5.73247 2.9688 6.05312 2.96875 6.38108V17.9161H5.46875V8.74941C5.46875 8.5284 5.55655 8.31643 5.71283 8.16015C5.86911 8.00387 6.08107 7.91608 6.30208 7.91608H15.4688C15.6898 7.91608 15.9017 8.00387 16.058 8.16015C16.2143 8.31643 16.3021 8.5284 16.3021 8.74941V17.9161H18.8021V6.38108C18.802 6.05312 18.7052 5.73247 18.5238 5.45928C18.3424 5.18608 18.0843 4.97249 17.7821 4.84524L11.5321 2.21358C11.3274 2.1274 11.1075 2.08301 10.8854 2.08301C10.6633 2.08301 10.4435 2.1274 10.2388 2.21358Z" stroke="#652EDA" stroke-width="1.25" stroke-linecap="square" stroke-linejoin="round"/>
<path d="M10.0547 5.41699H11.7214" stroke="#652EDA" stroke-width="1.25" stroke-linecap="round"/>
<path d="M12.5534 12.917H9.22005C8.99904 12.917 8.78708 13.0048 8.6308 13.1611C8.47452 13.3174 8.38672 13.5293 8.38672 13.7503V17.0837C8.38672 17.3047 8.47452 17.5166 8.6308 17.6729C8.78708 17.8292 8.99904 17.917 9.22005 17.917H12.5534C12.7744 17.917 12.9864 17.8292 13.1426 17.6729C13.2989 17.5166 13.3867 17.3047 13.3867 17.0837V13.7503C13.3867 13.5293 13.2989 13.3174 13.1426 13.1611C12.9864 13.0048 12.7744 12.917 12.5534 12.917Z" stroke="#652EDA" stroke-width="1.25" stroke-linecap="square" stroke-linejoin="round"/>
</svg>
