<svg width="131" height="8" viewBox="0 0 131 8" fill="none" xmlns="http://www.w3.org/2000/svg">
<path d="M1 3.5C0.723858 3.5 0.5 3.72386 0.5 4C0.5 4.27614 0.723858 4.5 1 4.5V3.5ZM130.354 4.35355C130.549 4.15829 130.549 3.84171 130.354 3.64645L127.172 0.464466C126.976 0.269204 126.66 0.269204 126.464 0.464466C126.269 0.659728 126.269 0.976311 126.464 1.17157L129.293 4L126.464 6.82843C126.269 7.02369 126.269 7.34027 126.464 7.53553C126.66 7.7308 126.976 7.7308 127.172 7.53553L130.354 4.35355ZM3.01562 4.5C3.29177 4.5 3.51562 4.27614 3.51562 4C3.51562 3.72386 3.29177 3.5 3.01562 3.5V4.5ZM7.04688 3.5C6.77073 3.5 6.54688 3.72386 6.54688 4C6.54688 4.27614 6.77073 4.5 7.04688 4.5V3.5ZM11.0781 4.5C11.3543 4.5 11.5781 4.27614 11.5781 4C11.5781 3.72386 11.3543 3.5 11.0781 3.5V4.5ZM15.1094 3.5C14.8332 3.5 14.6094 3.72386 14.6094 4C14.6094 4.27614 14.8332 4.5 15.1094 4.5V3.5ZM19.1406 4.5C19.4168 4.5 19.6406 4.27614 19.6406 4C19.6406 3.72386 19.4168 3.5 19.1406 3.5V4.5ZM23.1719 3.5C22.8957 3.5 22.6719 3.72386 22.6719 4C22.6719 4.27614 22.8957 4.5 23.1719 4.5V3.5ZM27.2031 4.5C27.4793 4.5 27.7031 4.27614 27.7031 4C27.7031 3.72386 27.4793 3.5 27.2031 3.5V4.5ZM31.2344 3.5C30.9582 3.5 30.7344 3.72386 30.7344 4C30.7344 4.27614 30.9582 4.5 31.2344 4.5V3.5ZM35.2656 4.5C35.5418 4.5 35.7656 4.27614 35.7656 4C35.7656 3.72386 35.5418 3.5 35.2656 3.5V4.5ZM39.2969 3.5C39.0207 3.5 38.7969 3.72386 38.7969 4C38.7969 4.27614 39.0207 4.5 39.2969 4.5V3.5ZM43.3281 4.5C43.6043 4.5 43.8281 4.27614 43.8281 4C43.8281 3.72386 43.6043 3.5 43.3281 3.5V4.5ZM47.3594 3.5C47.0832 3.5 46.8594 3.72386 46.8594 4C46.8594 4.27614 47.0832 4.5 47.3594 4.5V3.5ZM51.3906 4.5C51.6668 4.5 51.8906 4.27614 51.8906 4C51.8906 3.72386 51.6668 3.5 51.3906 3.5V4.5ZM55.4219 3.5C55.1457 3.5 54.9219 3.72386 54.9219 4C54.9219 4.27614 55.1457 4.5 55.4219 4.5V3.5ZM59.4531 4.5C59.7293 4.5 59.9531 4.27614 59.9531 4C59.9531 3.72386 59.7293 3.5 59.4531 3.5V4.5ZM63.4844 3.5C63.2082 3.5 62.9844 3.72386 62.9844 4C62.9844 4.27614 63.2082 4.5 63.4844 4.5V3.5ZM67.5156 4.5C67.7918 4.5 68.0156 4.27614 68.0156 4C68.0156 3.72386 67.7918 3.5 67.5156 3.5V4.5ZM71.5469 3.5C71.2707 3.5 71.0469 3.72386 71.0469 4C71.0469 4.27614 71.2707 4.5 71.5469 4.5V3.5ZM75.5781 4.5C75.8543 4.5 76.0781 4.27614 76.0781 4C76.0781 3.72386 75.8543 3.5 75.5781 3.5V4.5ZM79.6094 3.5C79.3332 3.5 79.1094 3.72386 79.1094 4C79.1094 4.27614 79.3332 4.5 79.6094 4.5V3.5ZM83.6406 4.5C83.9168 4.5 84.1406 4.27614 84.1406 4C84.1406 3.72386 83.9168 3.5 83.6406 3.5V4.5ZM87.6719 3.5C87.3957 3.5 87.1719 3.72386 87.1719 4C87.1719 4.27614 87.3957 4.5 87.6719 4.5V3.5ZM91.7031 4.5C91.9793 4.5 92.2031 4.27614 92.2031 4C92.2031 3.72386 91.9793 3.5 91.7031 3.5V4.5ZM95.7344 3.5C95.4582 3.5 95.2344 3.72386 95.2344 4C95.2344 4.27614 95.4582 4.5 95.7344 4.5V3.5ZM99.7656 4.5C100.042 4.5 100.266 4.27614 100.266 4C100.266 3.72386 100.042 3.5 99.7656 3.5V4.5ZM103.797 3.5C103.521 3.5 103.297 3.72386 103.297 4C103.297 4.27614 103.521 4.5 103.797 4.5V3.5ZM107.828 4.5C108.104 4.5 108.328 4.27614 108.328 4C108.328 3.72386 108.104 3.5 107.828 3.5V4.5ZM111.859 3.5C111.583 3.5 111.359 3.72386 111.359 4C111.359 4.27614 111.583 4.5 111.859 4.5V3.5ZM115.891 4.5C116.167 4.5 116.391 4.27614 116.391 4C116.391 3.72386 116.167 3.5 115.891 3.5V4.5ZM119.922 3.5C119.646 3.5 119.422 3.72386 119.422 4C119.422 4.27614 119.646 4.5 119.922 4.5V3.5ZM123.953 4.5C124.229 4.5 124.453 4.27614 124.453 4C124.453 3.72386 124.229 3.5 123.953 3.5V4.5ZM127.984 3.5C127.708 3.5 127.484 3.72386 127.484 4C127.484 4.27614 127.708 4.5 127.984 4.5V3.5ZM1 4.5H3.01562V3.5H1V4.5ZM7.04688 4.5H11.0781V3.5H7.04688V4.5ZM15.1094 4.5H19.1406V3.5H15.1094V4.5ZM23.1719 4.5H27.2031V3.5H23.1719V4.5ZM31.2344 4.5H35.2656V3.5H31.2344V4.5ZM39.2969 4.5H43.3281V3.5H39.2969V4.5ZM47.3594 4.5H51.3906V3.5H47.3594V4.5ZM55.4219 4.5H59.4531V3.5H55.4219V4.5ZM63.4844 4.5H67.5156V3.5H63.4844V4.5ZM71.5469 4.5H75.5781V3.5H71.5469V4.5ZM79.6094 4.5H83.6406V3.5H79.6094V4.5ZM87.6719 4.5H91.7031V3.5H87.6719V4.5ZM95.7344 4.5H99.7656V3.5H95.7344V4.5ZM103.797 4.5H107.828V3.5H103.797V4.5ZM111.859 4.5H115.891V3.5H111.859V4.5ZM119.922 4.5H123.953V3.5H119.922V4.5ZM127.984 4.5H130V3.5H127.984V4.5Z" fill="black" fill-opacity="0.1"/>
</svg>
