<svg width="21" height="20" viewBox="0 0 21 20" fill="none" xmlns="http://www.w3.org/2000/svg">
<path d="M3.83203 11.666H5.82771C6.07284 11.666 6.31459 11.7212 6.53384 11.8273L8.23549 12.6506C8.45473 12.7567 8.69649 12.812 8.94161 12.812H9.81047C10.6508 12.812 11.332 13.4712 11.332 14.2843C11.332 14.3172 11.3095 14.3461 11.2769 14.3551L9.15943 14.9406C8.77959 15.0456 8.37286 15.009 8.01953 14.838L6.20045 13.9579" stroke="#652EDA" stroke-width="1.5" stroke-linecap="round" stroke-linejoin="round"/>
<path d="M11.332 13.75L15.1593 12.5741C15.8378 12.3627 16.5713 12.6134 16.9963 13.2019C17.3036 13.6275 17.1785 14.2368 16.7307 14.4951L10.4678 18.1088C10.0694 18.3386 9.59948 18.3947 9.16133 18.2647L3.83203 16.6833" stroke="#652EDA" stroke-width="1.5" stroke-linecap="round" stroke-linejoin="round"/>
<path d="M13 9.99935H11.3333C9.76198 9.99935 8.97631 9.99935 8.48816 9.51119C8 9.02304 8 8.23736 8 6.66602V4.99935C8 3.428 8 2.64233 8.48816 2.15417C8.97631 1.66602 9.76198 1.66602 11.3333 1.66602H13C14.5713 1.66602 15.357 1.66602 15.8452 2.15417C16.3333 2.64233 16.3333 3.428 16.3333 4.99935V6.66602C16.3333 8.23736 16.3333 9.02304 15.8452 9.51119C15.357 9.99935 14.5713 9.99935 13 9.99935Z" stroke="#652EDA" stroke-width="1.5" stroke-linecap="round" stroke-linejoin="round"/>
<path d="M11.332 4.16602H12.9987" stroke="#652EDA" stroke-width="1.5" stroke-linecap="round" stroke-linejoin="round"/>
</svg>
