<svg width="24" height="24" viewBox="0 0 24 24" fill="none" xmlns="http://www.w3.org/2000/svg">
<g clip-path="url(#clip0_10200_61742)">
<path d="M17.625 22.5938H14.8125C14.4239 22.5938 14.1094 22.2793 14.1094 21.8906C14.1094 21.502 14.4239 21.1875 14.8125 21.1875H17.625C18.7882 21.1875 19.7344 20.2413 19.7344 19.0781V17.6719C19.7344 17.2832 20.0489 16.9688 20.4375 16.9688C20.8261 16.9688 21.1406 17.2832 21.1406 17.6719V19.0781C21.1406 21.0165 19.5634 22.5938 17.625 22.5938Z" fill="#501BC1"/>
<path d="M0 13.406C0 15.3346 0.623672 17.1909 2.53167 17.1909C3.05972 17.1909 3.54173 17.0385 3.83011 16.8943V9.96448C3.5393 9.81926 3.05236 9.66495 2.51953 9.66701C0.617531 9.67451 0 11.4889 0 13.406Z" fill="#652EDA"/>
<path d="M12 0C6.96 0 2.8125 4.1475 2.8125 9.1875C2.8125 9.57614 3.12698 9.89062 3.51562 9.89062C3.90427 9.89062 4.21875 9.57614 4.21875 9.1875C4.21875 4.92277 7.73527 1.40625 12 1.40625C16.2647 1.40625 19.7344 4.92277 19.7344 9.1875C19.7344 9.57614 20.0489 9.89062 20.4375 9.89062C20.8261 9.89062 21.1406 9.57614 21.1406 9.1875C21.1406 4.1475 17.04 0 12 0Z" fill="#501BC1"/>
<path d="M19.7344 9.1875C19.7344 9.57614 20.0489 9.89062 20.4375 9.89062C20.8261 9.89062 21.1406 9.57614 21.1406 9.1875C21.1406 4.1475 17.04 0 12 0V1.40625C16.2647 1.40625 19.7344 4.92277 19.7344 9.1875Z" fill="#501BC1"/>
<path d="M13.4062 19.7812H12C10.8368 19.7812 9.89062 20.7275 9.89062 21.8906C9.89062 23.0538 10.8368 24 12 24H13.4062C14.5694 24 15.5156 23.0538 15.5156 21.8906C15.5156 20.7275 14.5694 19.7812 13.4062 19.7812Z" fill="#78D3CA"/>
<path d="M15.5156 21.8906C15.5156 20.7275 14.5694 19.7812 13.4062 19.7812H12V24H13.4062C14.5694 24 15.5156 23.0538 15.5156 21.8906Z" fill="#50C2B7"/>
<path d="M3.51562 18.375C3.12698 18.375 2.8125 18.0605 2.8125 17.6719V9.1875C2.8125 8.79886 3.12698 8.48438 3.51562 8.48438C3.90427 8.48438 4.21875 8.79886 4.21875 9.1875V17.6719C4.21875 18.0605 3.90427 18.375 3.51562 18.375Z" fill="black"/>
<path d="M20.4375 18.375C20.0489 18.375 19.7344 18.0605 19.7344 17.6719V9.1875C19.7344 8.79886 20.0489 8.48438 20.4375 8.48438C20.8261 8.48438 21.1406 8.79886 21.1406 9.1875V17.6719C21.1406 18.0605 20.8261 18.375 20.4375 18.375Z" fill="black"/>
<path d="M21.4335 9.66799C20.9005 9.66579 20.4135 9.81977 20.123 9.96466V16.8945C20.4114 17.0387 20.8935 17.1911 21.4215 17.1911C23.3325 17.1911 24 15.3295 24 13.4061C24 11.4904 23.3373 9.67582 21.4335 9.66799Z" fill="#652EDA"/>
<path d="M4.92188 18.375H3.51562C3.12698 18.375 2.8125 18.0605 2.8125 17.6719V9.1875C2.8125 8.79886 3.12698 8.48438 3.51562 8.48438H4.92188C5.31052 8.48438 5.625 8.79886 5.625 9.1875V17.6719C5.625 18.0605 5.31052 18.375 4.92188 18.375Z" fill="#501BC1"/>
<path d="M20.4375 18.375H19.0312C18.6426 18.375 18.3281 18.0605 18.3281 17.6719V9.1875C18.3281 8.79886 18.6426 8.48438 19.0312 8.48438H20.4375C20.8261 8.48438 21.1406 8.79886 21.1406 9.1875V17.6719C21.1406 18.0605 20.8261 18.375 20.4375 18.375Z" fill="#501BC1"/>
</g>
<defs>
<clipPath id="clip0_10200_61742">
<rect width="24" height="24" fill="white"/>
</clipPath>
</defs>
</svg>
