<svg width="21" height="25" viewBox="0 0 21 25" fill="none" xmlns="http://www.w3.org/2000/svg">
<path d="M10.2514 0.96875L0 4.69706V12.9838C0 22.3475 9.94772 24.8945 10.0478 24.9195L10.2514 24.9688L10.455 24.9195C10.5551 24.8945 20.5028 22.3475 20.5028 12.9838V4.69706L10.2514 0.96875Z" fill="#501BC1"/>
<path d="M10.25 0.96875V24.9688L10.4536 24.9195C10.5537 24.8945 20.5014 22.3475 20.5014 12.9838V4.69706L10.25 0.96875Z" fill="#652EDA"/>
<path d="M8.54457 17.6082L4.52344 13.5871L5.73145 12.379L8.54457 15.1922L14.7748 8.96191L15.9828 10.1699L8.54457 17.6082Z" fill="#78D3CA"/>
<path d="M10.25 15.9006L15.9797 10.1709L14.7717 8.96289L10.25 13.4846V15.9006Z" fill="#50C2B7"/>
</svg>
