<svg width="33" height="18" viewBox="0 0 33 18" fill="none" xmlns="http://www.w3.org/2000/svg">
<path fill-rule="evenodd" clip-rule="evenodd" d="M1.50781 0.832031H19.4161V11.3206H1.50781V0.832031Z" fill="#78D3CA"/>
<path fill-rule="evenodd" clip-rule="evenodd" d="M11.6367 0.832031H19.4152V11.3206H11.6367V0.832031Z" fill="#50C2B7"/>
<path fill-rule="evenodd" clip-rule="evenodd" d="M17.9961 0.832031H19.415V11.3206H17.9961V0.832031Z" fill="#78D3CA"/>
<path fill-rule="evenodd" clip-rule="evenodd" d="M14.2109 0.832031H16.8403V6.24782L15.5267 4.93418L14.2109 6.24782V0.832031Z" fill="white" fill-opacity="0.6"/>
<path fill-rule="evenodd" clip-rule="evenodd" d="M15.5273 0.832031H16.8409V6.24782L15.5273 4.93418V0.832031Z" fill="white" fill-opacity="0.7"/>
<path fill-rule="evenodd" clip-rule="evenodd" d="M1.03111 11.3223H29.8808C30.448 11.3223 30.9119 11.7862 30.9119 12.3534V14.8999C30.9119 15.467 30.448 15.931 29.8808 15.931H1.03111C0.463982 15.9311 0 15.467 0 14.8999V12.3535C0 11.7863 0.463982 11.3223 1.03111 11.3223Z" fill="#501BC1"/>
<path fill-rule="evenodd" clip-rule="evenodd" d="M21.1523 15.9312H32.3739V5.70493L28.655 0.715048C28.3098 0.248759 27.8099 0 27.2316 0H22.4054C21.715 0 21.1523 0.562671 21.1523 1.25303V15.9312Z" fill="#652EDA"/>
<path fill-rule="evenodd" clip-rule="evenodd" d="M23.0703 1.7793V5.70437H30.1471L27.2599 1.8286C27.2263 1.78376 27.2151 1.7793 27.1613 1.7793H23.0703Z" fill="#F0F0FC"/>
<path fill-rule="evenodd" clip-rule="evenodd" d="M26.1719 1.7793L29.0949 5.70437H30.1463L27.2591 1.8286C27.2254 1.78376 27.2142 1.7793 27.1605 1.7793H26.1719Z" fill="#D7D7E3"/>
<path fill-rule="evenodd" clip-rule="evenodd" d="M31.1657 15.9312H32.374V5.70493L28.6551 0.715048C28.3099 0.248759 27.81 0 27.2317 0H26.0234C26.604 0 27.1016 0.248836 27.4491 0.715048L31.1657 5.70493V15.9312Z" fill="#501BC1"/>
<path fill-rule="evenodd" clip-rule="evenodd" d="M26.7645 17.9997C28.7237 17.9997 30.322 16.4015 30.322 14.4422C30.322 12.4809 28.7237 10.8848 26.7645 10.8848C24.8031 10.8848 23.207 12.4808 23.207 14.4422C23.207 16.4015 24.8031 17.9997 26.7645 17.9997Z" fill="#323233"/>
<path fill-rule="evenodd" clip-rule="evenodd" d="M26.7623 16.0409C27.641 16.0409 28.3583 15.3236 28.3583 14.4449C28.3583 13.564 27.641 12.8467 26.7623 12.8467C25.8813 12.8467 25.1641 13.564 25.1641 14.4449C25.1641 15.3236 25.8813 16.0409 26.7623 16.0409Z" fill="#E1EFFF"/>
<path fill-rule="evenodd" clip-rule="evenodd" d="M26.7628 10.8848C28.7265 10.8848 30.3202 12.4763 30.3202 14.4422C30.3202 16.4059 28.7265 17.9997 26.7628 17.9997C26.6372 17.9997 26.5139 17.993 26.3906 17.9796C28.1817 17.7935 29.5782 16.2804 29.5782 14.4423C29.5782 12.6019 28.1816 11.0888 26.3906 10.9028C26.5139 10.8892 26.6372 10.8848 26.7628 10.8848Z" fill="black"/>
<path fill-rule="evenodd" clip-rule="evenodd" d="M26.7612 12.8467C27.6422 12.8467 28.3573 13.5617 28.3573 14.4449C28.3573 15.3259 27.6422 16.0409 26.7612 16.0409C26.6649 16.0409 26.5685 16.0319 26.4766 16.0162C27.2253 15.8817 27.7924 15.2294 27.7924 14.4448C27.7924 13.658 27.2253 13.0058 26.4766 12.8712C26.5685 12.8557 26.6649 12.8467 26.7612 12.8467Z" fill="#D2DAF9"/>
<path fill-rule="evenodd" clip-rule="evenodd" d="M8.11216 17.9929C10.0713 17.9929 11.6696 16.3946 11.6696 14.4354C11.6696 12.4762 10.0714 10.8779 8.11216 10.8779C6.15293 10.8779 4.55469 12.4762 4.55469 14.4354C4.55469 16.3946 6.15293 17.9929 8.11216 17.9929Z" fill="#323233"/>
<path fill-rule="evenodd" clip-rule="evenodd" d="M8.11387 16.0292C8.9926 16.0292 9.70988 15.3119 9.70988 14.4332C9.70988 13.5522 8.99253 12.835 8.11387 12.835C7.2329 12.835 6.51563 13.5523 6.51563 14.4332C6.51555 15.3119 7.2329 16.0292 8.11387 16.0292Z" fill="#E1EFFF"/>
<path fill-rule="evenodd" clip-rule="evenodd" d="M8.11433 10.8779C10.078 10.8779 11.6718 12.4695 11.6718 14.4354C11.6718 16.3991 10.078 17.9929 8.11433 17.9929C7.98879 17.9929 7.86549 17.9862 7.74219 17.9727C9.53327 17.7889 10.9298 16.2758 10.9298 14.4355C10.9298 12.5952 9.53319 11.082 7.74219 10.8959C7.86549 10.8847 7.98879 10.8779 8.11433 10.8779Z" fill="black"/>
<path fill-rule="evenodd" clip-rule="evenodd" d="M8.11058 12.835C8.99154 12.835 9.70659 13.55 9.70659 14.4332C9.70659 15.3142 8.99154 16.0292 8.11058 16.0292C8.01419 16.0292 7.91781 16.0225 7.82812 16.0045C8.57456 15.8723 9.14169 15.2177 9.14169 14.4331C9.14169 13.6463 8.57456 12.994 7.82812 12.8595C7.92004 12.844 8.01419 12.835 8.11058 12.835Z" fill="#D2DAF9"/>
</svg>
