<svg width="25" height="23" viewBox="0 0 25 23" fill="none" xmlns="http://www.w3.org/2000/svg">
<path d="M18.741 7.29697e-05H14.7314L14.6577 0.106972V2.75179C14.6577 2.83662 14.5885 2.90563 14.5034 2.90563H11.6414C11.5564 2.90563 11.4872 2.83662 11.4872 2.75179V0.107782L11.4134 0H7.40384C7.27789 0 7.17578 0.101823 7.17578 0.227335V9.22372H18.969V0.227408C18.969 0.101822 18.8669 7.29697e-05 18.741 7.29697e-05Z" fill="#78D3CA"/>
<path d="M9.7601 9.22372V0.227335C9.7601 0.101749 9.86221 0 9.98816 0H7.40384C7.27789 0 7.17578 0.101823 7.17578 0.227335V9.22372H9.7601Z" fill="#50C2B7"/>
<path d="M14.5041 2.9792H11.6421C11.5162 2.9792 11.4141 2.87738 11.4141 2.75179V0H14.7321V2.75179C14.7321 2.87745 14.63 2.9792 14.5041 2.9792Z" fill="#652EDA"/>
<path d="M12.6835 2.75277V0.000976562H11.4102V2.75277C11.4102 2.87835 11.5123 2.98018 11.6382 2.98018H12.9115C12.7856 2.9801 12.6835 2.87835 12.6835 2.75277Z" fill="#501BC1"/>
<path d="M21.6219 19.7291V9.14941H4.74759C4.62164 9.14941 4.51953 9.25124 4.51953 9.37682V19.7291H21.6219Z" fill="#652EDA"/>
<path d="M7.0342 19.7291V9.37682C7.0342 9.25124 7.13631 9.14941 7.26226 9.14941H4.74751C4.62157 9.14941 4.51953 9.25124 4.51953 9.37682V19.7291H7.0342Z" fill="#501BC1"/>
<path d="M14.6925 12.1315H11.4507C11.3248 12.1315 11.2227 12.0297 11.2227 11.9041V9.15234H14.9205V11.9041C14.9205 12.0297 14.8184 12.1315 14.6925 12.1315Z" fill="#E0D5F8"/>
<path d="M12.5075 11.9041V9.15234H11.2227V11.9041C11.2227 12.0297 11.3248 12.1315 11.4507 12.1315H12.7356C12.6096 12.1315 12.5075 12.0296 12.5075 11.9041Z" fill="white" fill-opacity="0.6"/>
<path d="M24.3518 22.5005H0.648197C0.566355 22.5005 0.5 22.3987 0.5 22.2731V19.8856C0.5 19.76 0.566355 19.6582 0.648197 19.6582H24.3518C24.4336 19.6582 24.5 19.76 24.5 19.8856V22.2731C24.5 22.3987 24.4336 22.5005 24.3518 22.5005Z" fill="#323233"/>
<path d="M4.07578 22.2731V19.8856C4.07578 19.76 4.1779 19.6582 4.30384 19.6582H0.728056C0.602113 19.6582 0.5 19.76 0.5 19.8856V22.2731C0.5 22.3987 0.602113 22.5005 0.728056 22.5005H4.30384C4.17782 22.5005 4.07578 22.3987 4.07578 22.2731Z" fill="black"/>
</svg>
