<svg width="19" height="24" viewBox="0 0 19 24" fill="none" xmlns="http://www.w3.org/2000/svg">
<path d="M9.07258 7.9502C8.83662 7.9502 8.58655 7.9502 8.33648 7.97821H8.29489C3.74016 8.41418 0 12.7924 0 17.6719C0 23.3392 5.19825 24 9.07258 24C12.9192 24 17.4045 23.4095 18.0294 18.7548C18.682 13.2985 14.405 7.9502 9.07258 7.9502Z" fill="#501BC1"/>
<path d="M18.0291 18.7548C17.4042 23.4095 12.9189 24 9.07227 24V7.9502C14.4047 7.9502 18.6817 13.2985 18.0291 18.7548Z" fill="#652EDA"/>
<path d="M13.8915 2.33439L12.5028 6.59998H5.64307L4.25441 2.33439C4.17088 2.12346 4.21265 1.88432 4.33759 1.70158C4.47646 1.51885 4.68475 1.40624 4.90698 1.40624H7.11491C7.39264 0.59051 8.17033 0 9.07296 0C9.97559 0 10.7393 0.59051 11.031 1.40624H13.2389C13.4612 1.40624 13.6695 1.51885 13.8083 1.70158C13.9333 1.88432 13.975 2.12346 13.8915 2.33439Z" fill="#501BC1"/>
<path d="M13.8908 2.33439L12.5021 6.59998H9.07227V0C9.97489 0 10.7387 0.59051 11.0303 1.40624H13.2382C13.4605 1.40624 13.6688 1.51885 13.8076 1.70158C13.9326 1.88432 13.9743 2.12346 13.8908 2.33439Z" fill="#652EDA"/>
<path d="M11.1425 17.8828C11.1425 18.7968 10.5733 19.5561 9.76781 19.8515V20.4843C9.76781 20.8782 9.46241 21.1874 9.07348 21.1874C8.68454 21.1874 8.37915 20.8782 8.37915 20.4843V19.8656C7.57361 19.5702 6.97656 18.7968 6.97656 17.8828C6.97656 17.4891 7.29588 17.1796 7.67089 17.1796C8.05983 17.1796 8.36522 17.4891 8.36522 17.8828C8.36522 18.2625 8.68454 18.5859 9.05955 18.5859H9.07348C9.46241 18.5718 9.75388 18.2625 9.75388 17.8828C9.75388 17.4891 9.46241 17.1937 9.07348 17.1796H9.05955C7.92096 17.1796 6.97656 16.2233 6.97656 15.0703C6.97656 14.1421 7.57379 13.3687 8.37915 13.0874V12.0469C8.37915 11.653 8.68454 11.3438 9.07348 11.3438C9.46241 11.3438 9.76781 11.653 9.76781 12.0469V13.0874C10.5733 13.3828 11.1425 14.1562 11.1425 15.0703C11.1425 15.45 10.8371 15.7734 10.4482 15.7734C10.0732 15.7734 9.75388 15.45 9.75388 15.0703C9.75388 14.6766 9.46241 14.3813 9.07348 14.3672H9.05955C8.68454 14.3672 8.36522 14.6766 8.36522 15.0703C8.36522 15.45 8.68454 15.7734 9.05955 15.7734H9.07348C10.2262 15.7875 11.1425 16.7157 11.1425 17.8828Z" fill="#50C2B7"/>
<path d="M13.9335 7.07811C13.9335 7.85154 13.3086 8.48435 12.5449 8.48435H5.60155C4.83779 8.48435 4.21289 7.85154 4.21289 7.07811C4.21289 6.30468 4.83779 5.67188 5.60155 5.67188H12.5449C13.3086 5.67188 13.9335 6.30468 13.9335 7.07811Z" fill="#78D3CA"/>
<path d="M11.1413 17.8828C11.1413 18.7968 10.5721 19.5562 9.7666 19.8515V20.4843C9.7666 20.8782 9.4612 21.1875 9.07227 21.1875V18.5859C9.4612 18.5718 9.75267 18.2626 9.75267 17.8828C9.75267 17.4891 9.4612 17.1938 9.07227 17.1797V15.7734C10.225 15.7875 11.1413 16.7157 11.1413 17.8828Z" fill="#78D3CA"/>
<path d="M11.1413 15.0703C11.1413 15.45 10.8359 15.7734 10.447 15.7734C10.072 15.7734 9.75267 15.45 9.75267 15.0703C9.75267 14.6766 9.4612 14.3813 9.07227 14.3672V11.3438C9.4612 11.3438 9.7666 11.653 9.7666 12.0469V13.0874C10.5721 13.3828 11.1413 14.1562 11.1413 15.0703Z" fill="#78D3CA"/>
<path d="M13.9326 7.07811C13.9326 7.85154 13.3077 8.48435 12.5439 8.48435H9.07227V5.67188H12.5439C13.3077 5.67188 13.9326 6.30468 13.9326 7.07811Z" fill="#78D3CA"/>
</svg>
