<svg width="17" height="24" viewBox="0 0 17 24" fill="none" xmlns="http://www.w3.org/2000/svg">
<path d="M14.4689 3.53125V6.00187C14.4689 7.02541 14.2148 7.98542 13.763 8.82543C12.7536 10.7172 10.763 12.0019 8.46882 12.0019C6.08291 12.0019 4.01818 10.6078 3.05464 8.58896C2.67699 7.80542 2.46875 6.93011 2.46875 6.00187V3.53125H14.4689Z" fill="#ECEAFD"/>
<path d="M14.4689 3.53125V3.54184C12.3442 3.60184 4.4523 3.94773 2.46875 5.87128V3.53125H14.4689Z" fill="#501BC1"/>
<path d="M14.263 7.56445C14.1465 8.00563 13.9771 8.42917 13.7653 8.82447C12.7559 10.7163 10.7653 12.001 8.47114 12.001C6.08523 12.001 4.0205 10.6068 3.05696 8.58799C2.89814 8.26329 2.77108 7.92093 2.67578 7.56445H14.263Z" fill="#78D3CA"/>
<path d="M13.9415 3.55582V3.52759H3.00024V5.46878C2.41435 5.82526 2.05082 6.24879 2.01905 6.74998C1.96611 6.36527 1.94141 5.98408 1.94141 5.64526V2.99817C1.94141 2.70522 2.17788 2.46875 2.47082 2.46875H14.471C14.6404 2.46875 14.7886 2.5464 14.8839 2.66993L15.0004 3.52759C15.0004 3.52759 14.6016 3.53112 13.9415 3.55582Z" fill="#303256"/>
<path d="M14.8839 2.66993C14.7886 2.5464 14.6404 2.46875 14.471 2.46875H2.47082C2.17788 2.46875 1.94141 2.70522 1.94141 2.99817V5.64526C1.94141 5.98408 1.96611 6.36527 2.01905 6.74998C2.11435 7.48057 2.30141 8.2394 2.58024 8.81471C3.65672 11.07 5.96851 12.5277 8.47089 12.5277C10.8886 12.5277 13.0945 11.2041 14.231 9.07236C14.7357 8.13705 15.0004 6.72174 15.0004 5.64526V2.99817C15.0004 2.87464 14.958 2.75817 14.8839 2.66993ZM13.9415 5.64526C13.9415 6.55939 13.7262 7.77705 13.2992 8.57117C12.3462 10.3606 10.4968 11.4689 8.47089 11.4689C6.3744 11.4689 4.43673 10.2477 3.53319 8.35588C3.18024 7.62175 3.00024 6.47468 3.00024 5.64526V3.52759H13.9415V5.64526Z" fill="#652EDA"/>
<path d="M8.46882 12C11.7826 12 14.4689 14.6863 14.4689 18.0001V20.4707H2.46875V18.0001C2.46875 14.6863 5.15502 12 8.46882 12Z" fill="#ECEAFD"/>
<path d="M14.4689 20.4698L12.6798 19.207C10.3712 17.5774 8.99824 14.9275 8.99824 12.1015C8.99824 11.7528 8.76141 11.4697 8.46882 11.4697C8.17623 11.4697 7.9394 11.7528 7.9394 12.1015C7.9394 14.9275 6.56644 17.5771 4.25783 19.207L2.46875 20.4698H14.4689Z" fill="#78D3CA"/>
<path d="M14.471 21.5287H2.47082C2.17823 21.5287 1.94141 21.2915 1.94141 20.9992V17.9992C1.94141 14.3988 4.8705 11.4697 8.47089 11.4697C12.0713 11.4697 15.0004 14.3988 15.0004 17.9992V20.9992C15.0004 21.2915 14.7636 21.5287 14.471 21.5287ZM3.00024 20.4698H13.9415V17.9992C13.9415 14.9826 11.4875 12.5286 8.47089 12.5286C5.45427 12.5286 3.00024 14.9826 3.00024 17.9992V20.4698Z" fill="#652EDA"/>
<path d="M15.1766 3.52945H1.76473C0.790244 3.52945 0 2.73921 0 1.76473C0 0.790244 0.790244 0 1.76473 0H15.1766C16.1511 0 16.9414 0.790244 16.9414 1.76473C16.9414 2.73921 16.1511 3.52945 15.1766 3.52945Z" fill="#652EDA"/>
<path d="M15.1766 23.9992H1.76473C0.790244 23.9992 0 23.2089 0 22.2345C0 21.26 0.790244 20.4697 1.76473 20.4697H15.1766C16.1511 20.4697 16.9414 21.26 16.9414 22.2345C16.9414 23.2089 16.1511 23.9992 15.1766 23.9992Z" fill="#652EDA"/>
</svg>
