<svg width="24" height="24" viewBox="0 0 24 24" fill="none" xmlns="http://www.w3.org/2000/svg">
<path d="M23.5881 10.1368L11.3516 22.3732C10.8025 22.9224 9.91213 22.9224 9.36301 22.3732L1.62672 14.637C1.07755 14.0878 1.07755 13.1975 1.62672 12.6483L13.8631 0.411873C14.4123 -0.137291 15.3027 -0.137291 15.8518 0.411873L20.3636 4.92368L21.0675 6.56508L22.473 7.0331L23.5881 8.14817C24.1372 8.69728 24.1372 9.58764 23.5881 10.1368Z" fill="#78D3CA"/>
<path d="M6.13672 19.1484L20.3597 4.92549L22.4687 7.03457L8.2458 21.2575L6.13672 19.1484Z" fill="black"/>
<path d="M1.40619 10.2471C0.629551 10.2471 0 10.8766 0 11.6533V22.594C0 23.3707 0.629551 24.0002 1.40619 24.0002H10.0587L11.4649 17.1237L10.0587 10.2471H1.40619V10.2471Z" fill="#652EDA"/>
<path d="M18.7111 10.2471H10.0586V24.0002H18.7111C19.4877 24.0002 20.1173 23.3707 20.1173 22.594V11.6533C20.1173 10.8766 19.4877 10.2471 18.7111 10.2471Z" fill="#501BC1"/>
<path d="M2.23828 19.5479H5.01358V20.954H2.23828V19.5479Z" fill="white" fill-opacity="0.7"/>
<path d="M6.52734 19.5479H9.30265V20.954H6.52734V19.5479Z" fill="white" fill-opacity="0.7"/>
<path d="M10.8164 19.5479H13.5917V20.954H10.8164V19.5479Z" fill="white" fill-opacity="0.5"/>
<path d="M15.1055 19.5479H17.8808V20.954H15.1055V19.5479Z" fill="white" fill-opacity="0.5"/>
<path d="M2.28125 13.9961H6.52766V16.9792H2.28125V13.9961Z" fill="white" fill-opacity="0.7"/>
</svg>
