<svg width="28" height="19" viewBox="0 0 28 19" fill="none" xmlns="http://www.w3.org/2000/svg">
<path d="M14.2608 11.2433L16.1919 12.4762L14.2608 15.5084C13.8086 15.5084 13.3563 15.3356 13.0112 14.9905L9.74367 11.7224L2.75515 18.7109C2.41226 19.0538 1.85555 19.0538 1.51266 18.7109L0.257578 17.4553C-0.0858593 17.1124 -0.0858593 16.5557 0.257578 16.2128L8.49406 7.97521C9.18421 7.28561 10.3026 7.28561 10.9927 7.97521L14.2608 11.2433Z" fill="#78D3CA"/>
<path d="M28.0009 0.878827V9.79835C28.0009 10.2834 27.6076 10.6772 27.122 10.6772H25.3469C24.8612 10.6772 24.468 10.2834 24.468 9.79835V6.03093L15.5108 14.9882C15.1657 15.3333 14.714 15.5061 14.2617 15.5061V11.241L21.9705 3.53281H18.203C17.718 3.53281 17.3242 3.13906 17.3242 2.65398V0.878827C17.3242 0.393203 17.718 0 18.203 0H27.122C27.6076 0 28.0009 0.393203 28.0009 0.878827Z" fill="#652EDA"/>
</svg>
