<svg width="25" height="25" viewBox="0 0 25 25" fill="none" xmlns="http://www.w3.org/2000/svg">
<path d="M18.1621 18.1699C21.4758 14.8562 21.4758 9.48363 18.1621 6.16992C14.8484 2.85621 9.47582 2.85621 6.16211 6.16992C2.8484 9.48363 2.8484 14.8562 6.16211 18.1699C9.47582 21.4836 14.8484 21.4836 18.1621 18.1699Z" fill="#50C2B7"/>
<path fill-rule="evenodd" clip-rule="evenodd" d="M13.0107 3.72461C17.3019 4.1478 20.6542 7.76701 20.6542 12.1696C20.6542 16.5721 17.3019 20.1913 13.0107 20.6145C8.71948 20.1913 5.36719 16.572 5.36719 12.1696C5.36719 7.76711 8.71948 4.1478 13.0107 3.72461Z" fill="#78D3CA"/>
<path d="M14.4505 12.7127C15.7146 11.4486 15.7146 9.39908 14.4505 8.13498C13.1864 6.87088 11.1369 6.87088 9.87284 8.13497C8.60874 9.39907 8.60874 11.4486 9.87284 12.7127C11.1369 13.9768 13.1864 13.9768 14.4505 12.7127Z" fill="white" fill-opacity="0.6"/>
<path fill-rule="evenodd" clip-rule="evenodd" d="M12.8621 7.26074C14.3158 7.57909 15.404 8.87391 15.404 10.423C15.404 11.9721 14.3157 13.2671 12.8621 13.5853C11.4085 13.267 10.3203 11.9721 10.3203 10.423C10.3203 8.87391 11.4085 7.57899 12.8621 7.26074Z" fill="white" fill-opacity="0.6"/>
<path fill-rule="evenodd" clip-rule="evenodd" d="M12.1671 13.6602H12.1672C14.9879 13.6602 17.44 15.3191 18.596 17.7095C17.0398 19.5139 14.7369 20.6562 12.1672 20.6562C9.59739 20.6562 7.29453 19.5139 5.73828 17.7095C6.89432 15.3191 9.34642 13.6602 12.1671 13.6602Z" fill="#501BC1"/>
<path fill-rule="evenodd" clip-rule="evenodd" d="M12.9996 13.709C15.4639 13.999 17.5546 15.5576 18.5951 17.7094C17.0389 19.5137 14.736 20.6561 12.1663 20.6561C10.2897 20.6561 8.55543 20.0467 7.15039 19.0155C8.24661 15.6142 10.5782 14.0005 12.9996 13.7091V13.709Z" fill="#652EDA"/>
<path fill-rule="evenodd" clip-rule="evenodd" d="M17.8346 22.192C16.576 22.9036 15.1852 23.3791 13.7348 23.5796C12.1352 23.8007 10.4622 23.6869 8.81409 23.1858C5.77126 22.2606 3.39141 20.1898 2.00379 17.5897C0.616272 14.9897 0.220505 11.8605 1.14565 8.81818C1.36445 8.09872 1.64567 7.4187 1.9815 6.7824C2.32733 6.12696 2.73186 5.51457 3.18614 4.94982C3.35062 4.74538 3.64976 4.71289 3.85436 4.87723C4.05887 5.04166 4.09137 5.34071 3.92698 5.54515C3.51082 6.06236 3.14002 6.62387 2.82278 7.22511C2.51201 7.81406 2.25328 8.43825 2.05402 9.09351C1.20511 11.8854 1.56819 14.7572 2.84145 17.1431C4.11471 19.5289 6.29806 21.4289 9.08959 22.2778C10.6003 22.737 12.1353 22.8412 13.6046 22.6381C14.954 22.4515 16.2475 22.0053 17.4154 21.3367L16.845 21.265C16.5839 21.2331 16.3981 20.9956 16.43 20.7347C16.4619 20.4738 16.6994 20.2879 16.9604 20.3198L18.8315 20.555C19.1327 20.592 19.3254 20.9064 19.2186 21.1932L18.5405 23.0179C18.449 23.2635 18.1757 23.3884 17.93 23.297C17.6843 23.2057 17.5594 22.9323 17.6508 22.6867L17.8346 22.192ZM5.78755 1.31811L5.10942 3.14278C5.01794 3.38838 5.14297 3.66161 5.38864 3.75307C5.42962 3.76831 5.47136 3.77755 5.51291 3.78117L7.36758 4.01429C7.62764 4.04611 7.86436 3.8612 7.89619 3.60121C7.92802 3.34122 7.74305 3.10458 7.48298 3.07276L6.91015 3.00073C8.07592 2.333 9.36643 1.88676 10.7125 1.69928C12.1852 1.49416 13.7242 1.59763 15.2384 2.05806C18.03 2.90689 20.2133 4.80692 21.4866 7.19272C22.7599 9.57861 23.123 12.4504 22.274 15.2423C22.0747 15.8976 21.816 16.5218 21.5052 17.1107C21.188 17.712 20.8172 18.2734 20.401 18.7907C20.2366 18.9951 20.269 19.2942 20.4737 19.4586C20.6782 19.623 20.9774 19.5905 21.1418 19.386C21.5962 18.8213 22.0006 18.2089 22.3464 17.5534C22.6822 16.9171 22.9635 16.2371 23.1823 15.5176C24.1073 12.4754 23.7116 9.34606 22.3241 6.7461C20.9365 4.14605 18.5568 2.0752 15.5138 1.14996C13.8617 0.647708 12.185 0.534433 10.582 0.757646C9.13524 0.959138 7.74829 1.43414 6.49313 2.1438L6.67696 1.64907C6.76845 1.40347 6.64341 1.13024 6.39774 1.03878C6.15206 0.947325 5.87875 1.07232 5.78727 1.31792L5.78755 1.31811Z" fill="#652EDA"/>
</svg>
