<svg width="20" height="20" viewBox="0 0 20 20" fill="none" xmlns="http://www.w3.org/2000/svg">
<path d="M10 18.3337C9.31817 18.3337 8.66683 18.0632 7.36411 17.5222C4.12137 16.1754 2.5 15.5021 2.5 14.3694V6.45418M10 18.3337C10.6818 18.3337 11.3332 18.0632 12.6359 17.5222C15.8787 16.1754 17.5 15.5021 17.5 14.3694V6.45418M10 18.3337V10.1409M2.5 6.45418C2.5 6.95741 3.16797 7.27518 4.50393 7.91073L6.93827 9.06883C8.44067 9.78358 9.19192 10.1409 10 10.1409M2.5 6.45418C2.5 5.95096 3.16797 5.63319 4.50393 4.99764L6.25 4.16699M17.5 6.45418C17.5 6.95741 16.832 7.27518 15.4961 7.91073L13.0617 9.06883C11.5593 9.78358 10.8081 10.1409 10 10.1409M17.5 6.45418C17.5 5.95096 16.832 5.63319 15.4961 4.99764L13.75 4.16699M5 10.9602L6.66667 11.7795" stroke="#652EDA" stroke-width="1.5" stroke-linecap="round" stroke-linejoin="round"/>
<path d="M10.0018 1.66699V7.50028M10.0018 7.50028C10.221 7.50325 10.4373 7.35009 10.5969 7.16311L11.6654 5.88511M10.0018 7.50028C9.79028 7.49743 9.57611 7.34506 9.40678 7.16311L8.33203 5.88511" stroke="#652EDA" stroke-width="1.5" stroke-linecap="round"/>
</svg>
