<svg width="24" height="24" viewBox="0 0 24 24" fill="none" xmlns="http://www.w3.org/2000/svg">
<path d="M12 24C18.6274 24 24 18.6274 24 12C24 5.37258 18.6274 0 12 0C5.37258 0 0 5.37258 0 12C0 18.6274 5.37258 24 12 24Z" fill="#652EDA"/>
<path d="M17.4416 17.3362L15.507 16.5173L14.9445 18.7969C14.8812 19.0542 14.5203 19.1184 14.3984 18.8944L12.5 15.3891C13.8608 15.2626 15.1217 14.6202 16.0241 13.5938L17.8381 16.9406C17.9638 17.1703 17.6928 17.4422 17.4416 17.3362Z" fill="#50C2B7"/>
<path d="M11.4997 15.3885L9.60034 18.8938C9.47847 19.1179 9.11753 19.0536 9.05425 18.7963L8.49175 16.5168L6.55722 17.3357C6.30597 17.4416 6.03503 17.1697 6.16066 16.9377L7.97472 13.5908C8.87691 14.6184 10.1382 15.2616 11.4997 15.3885Z" fill="#50C2B7"/>
<path d="M11.9992 4.96875C10.9942 4.96875 10.0118 5.26676 9.17623 5.82509C8.34062 6.38343 7.68935 7.17701 7.30476 8.10549C6.92017 9.03397 6.81954 10.0556 7.01561 11.0413C7.21167 12.027 7.69561 12.9324 8.40623 13.643C9.11686 14.3536 10.0223 14.8376 11.0079 15.0336C11.9936 15.2297 13.0153 15.1291 13.9437 14.7445C14.8722 14.3599 15.6658 13.7086 16.2241 12.873C16.7825 12.0374 17.0805 11.055 17.0805 10.05C17.0805 9.38272 16.949 8.72198 16.6937 8.10549C16.4383 7.489 16.064 6.92885 15.5922 6.45701C15.1204 5.98518 14.5602 5.61089 13.9437 5.35554C13.3272 5.10018 12.6665 4.96875 11.9992 4.96875ZM14.9364 9.80203L13.8114 10.8998L14.0772 12.4495C14.092 12.5364 14.0822 12.6256 14.049 12.7072C14.0158 12.7888 13.9604 12.8595 13.8891 12.9112C13.8178 12.963 13.7335 12.9938 13.6456 13.0002C13.5578 13.0066 13.4699 12.9883 13.3919 12.9473L11.9992 12.2156L10.6075 12.9473C10.5295 12.9883 10.4416 13.0066 10.3537 13.0002C10.2659 12.9938 10.1815 12.963 10.1103 12.9112C10.039 12.8595 9.98362 12.7888 9.95039 12.7072C9.91715 12.6256 9.90738 12.5364 9.92219 12.4495L10.188 10.8998L9.06297 9.80203C8.99985 9.74056 8.95519 9.66265 8.93405 9.57712C8.91291 9.49159 8.91613 9.40184 8.94335 9.31805C8.97057 9.23425 9.02069 9.15974 9.08806 9.10295C9.15543 9.04617 9.23734 9.00937 9.32453 8.99672L10.8808 8.77031L11.5773 7.35937C11.6167 7.28128 11.677 7.21565 11.7515 7.16979C11.826 7.12394 11.9118 7.09966 11.9992 7.09966C12.0867 7.09966 12.1724 7.12394 12.2469 7.16979C12.3214 7.21565 12.3817 7.28128 12.4211 7.35937L13.1167 8.76937L14.673 8.99578C14.7605 9.00801 14.8429 9.04457 14.9106 9.1013C14.9784 9.15803 15.0289 9.23265 15.0564 9.31667C15.0838 9.40069 15.0871 9.49073 15.0659 9.57654C15.0447 9.66235 14.9998 9.74048 14.9364 9.80203Z" fill="#78D3CA"/>
</svg>
