<svg width="23" height="25" viewBox="0 0 23 25" fill="none" xmlns="http://www.w3.org/2000/svg">
<path d="M11.6992 20.75C16.1175 20.75 19.6992 17.1683 19.6992 12.75C19.6992 8.33172 16.1175 4.75 11.6992 4.75C7.28094 4.75 3.69922 8.33172 3.69922 12.75C3.69922 17.1683 7.28094 20.75 11.6992 20.75Z" fill="#652EDA"/>
<path d="M11.6992 18.75C15.0129 18.75 17.6992 16.0637 17.6992 12.75C17.6992 9.43629 15.0129 6.75 11.6992 6.75C8.38551 6.75 5.69922 9.43629 5.69922 12.75C5.69922 16.0637 8.38551 18.75 11.6992 18.75Z" fill="#501BC1"/>
<path d="M11.6984 13.7504C11.2435 13.7504 10.7989 13.6155 10.4206 13.3628C10.0424 13.11 9.7476 12.7508 9.57352 12.3306C9.39943 11.9103 9.35389 11.4478 9.44263 11.0017C9.53138 10.5555 9.75043 10.1457 10.0721 9.82405C10.3938 9.50238 10.8036 9.28333 11.2497 9.19459C11.6959 9.10584 12.1583 9.15139 12.5786 9.32547C12.9989 9.49955 13.3581 9.79435 13.6108 10.1726C13.8635 10.5508 13.9984 10.9955 13.9984 11.4504C13.9984 11.6626 13.9142 11.866 13.7641 12.0161C13.6141 12.1661 13.4106 12.2504 13.1984 12.2504C12.9863 12.2504 12.7828 12.1661 12.6328 12.0161C12.4827 11.866 12.3984 11.6626 12.3984 11.4504C12.3984 11.3119 12.3574 11.1766 12.2805 11.0615C12.2035 10.9464 12.0942 10.8567 11.9663 10.8037C11.8384 10.7507 11.6977 10.7368 11.5619 10.7638C11.4261 10.7909 11.3014 10.8575 11.2035 10.9554C11.1056 11.0533 11.0389 11.178 11.0119 11.3138C10.9849 11.4496 10.9987 11.5904 11.0517 11.7183C11.1047 11.8462 11.1944 11.9555 11.3095 12.0324C11.4247 12.1093 11.56 12.1504 11.6984 12.1504C11.9106 12.1504 12.1141 12.2347 12.2641 12.3847C12.4142 12.5347 12.4984 12.7382 12.4984 12.9504C12.4984 13.1626 12.4142 13.366 12.2641 13.5161C12.1141 13.6661 11.9106 13.7504 11.6984 13.7504Z" fill="#77CDCB"/>
<path d="M11.6984 16.7504C11.0887 16.7495 10.5042 16.507 10.073 16.0758C9.64188 15.6447 9.39928 15.0601 9.39844 14.4504C9.39844 14.2382 9.48272 14.0347 9.63275 13.8847C9.78278 13.7347 9.98626 13.6504 10.1984 13.6504C10.4106 13.6504 10.6141 13.7347 10.7641 13.8847C10.9142 14.0347 10.9984 14.2382 10.9984 14.4504C10.9984 14.5888 11.0395 14.7242 11.1164 14.8393C11.1933 14.9544 11.3027 15.0441 11.4306 15.0971C11.5585 15.1501 11.6992 15.1639 11.835 15.1369C11.9708 15.1099 12.0955 15.0433 12.1934 14.9454C12.2913 14.8475 12.358 14.7227 12.385 14.587C12.412 14.4512 12.3981 14.3104 12.3452 14.1825C12.2922 14.0546 12.2025 13.9453 12.0873 13.8684C11.9722 13.7914 11.8369 13.7504 11.6984 13.7504C11.4863 13.7504 11.2828 13.6661 11.1328 13.5161C10.9827 13.366 10.8984 13.1626 10.8984 12.9504C10.8984 12.7382 10.9827 12.5347 11.1328 12.3847C11.2828 12.2347 11.4863 12.1504 11.6984 12.1504C12.3084 12.1504 12.8934 12.3927 13.3248 12.824C13.7561 13.2554 13.9984 13.8404 13.9984 14.4504C13.9984 15.0604 13.7561 15.6454 13.3248 16.0767C12.8934 16.5081 12.3084 16.7504 11.6984 16.7504Z" fill="#77CDCB"/>
<path d="M11.6984 10.7504C11.4863 10.7504 11.2828 10.6661 11.1328 10.5161C10.9827 10.366 10.8984 10.1626 10.8984 9.95039V8.95039C10.8984 8.73822 10.9827 8.53473 11.1328 8.38471C11.2828 8.23468 11.4863 8.15039 11.6984 8.15039C11.9106 8.15039 12.1141 8.23468 12.2641 8.38471C12.4142 8.53473 12.4984 8.73822 12.4984 8.95039V9.95039C12.4984 10.1626 12.4142 10.366 12.2641 10.5161C12.1141 10.6661 11.9106 10.7504 11.6984 10.7504Z" fill="#77CDCB"/>
<path d="M11.6984 17.7504C11.4863 17.7504 11.2828 17.6661 11.1328 17.5161C10.9827 17.366 10.8984 17.1626 10.8984 16.9504V15.9504C10.8984 15.7382 10.9827 15.5347 11.1328 15.3847C11.2828 15.2347 11.4863 15.1504 11.6984 15.1504C11.9106 15.1504 12.1141 15.2347 12.2641 15.3847C12.4142 15.5347 12.4984 15.7382 12.4984 15.9504V16.9504C12.4984 17.1626 12.4142 17.366 12.2641 17.5161C12.1141 17.6661 11.9106 17.7504 11.6984 17.7504Z" fill="#77CDCB"/>
<path d="M19.7019 24.7498C19.4897 24.7497 19.2863 24.6654 19.1363 24.5154L16.7363 22.1154C16.5906 21.9645 16.5099 21.7624 16.5117 21.5526C16.5136 21.3429 16.5977 21.1422 16.746 20.9939C16.8944 20.8456 17.095 20.7614 17.3048 20.7596C17.5145 20.7578 17.7166 20.8384 17.8675 20.9842L19.7019 22.817L21.5363 20.9834C21.6872 20.8376 21.8893 20.757 22.099 20.7588C22.3088 20.7606 22.5094 20.8448 22.6577 20.9931C22.8061 21.1414 22.8902 21.3421 22.892 21.5518C22.8939 21.7616 22.8132 21.9637 22.6675 22.1146L20.2675 24.5146C20.1933 24.589 20.1051 24.6481 20.0081 24.6884C19.911 24.7288 19.807 24.7496 19.7019 24.7498Z" fill="#78D3CA"/>
<path d="M19.6984 24.75C19.4863 24.75 19.2828 24.6657 19.1328 24.5157C18.9827 24.3657 18.8984 24.1622 18.8984 23.95V17.55C18.8984 17.3378 18.9827 17.1343 19.1328 16.9843C19.2828 16.8343 19.4863 16.75 19.6984 16.75C19.9106 16.75 20.1141 16.8343 20.2641 16.9843C20.4142 17.1343 20.4984 17.3378 20.4984 17.55V23.95C20.4984 24.1622 20.4142 24.3657 20.2641 24.5157C20.1141 24.6657 19.9106 24.75 19.6984 24.75Z" fill="#78D3CA"/>
<path d="M6.10016 4.75081C5.88812 4.75097 5.68469 4.66695 5.53456 4.51721L3.70016 2.68281L1.86576 4.51721C1.79143 4.59148 1.7032 4.65039 1.60611 4.69057C1.50902 4.73075 1.40496 4.7514 1.29988 4.75137C1.1948 4.75133 1.09076 4.7306 0.993692 4.69035C0.896626 4.6501 0.808438 4.59113 0.734162 4.51681C0.659886 4.44248 0.600978 4.35425 0.560801 4.25715C0.520623 4.16006 0.499963 4.056 0.5 3.95092C0.500037 3.84584 0.520771 3.7418 0.561017 3.64474C0.601263 3.54767 0.660234 3.45948 0.734562 3.38521L3.13456 0.985206C3.28458 0.835229 3.48803 0.750977 3.70016 0.750977C3.91229 0.750977 4.11574 0.835229 4.26576 0.985206L6.66576 3.38521C6.77761 3.49709 6.85377 3.63962 6.88463 3.79478C6.91548 3.94994 6.89964 4.11077 6.83911 4.25693C6.77857 4.40309 6.67606 4.52802 6.54453 4.61593C6.413 4.70383 6.25836 4.75077 6.10016 4.75081Z" fill="#50C2B7"/>
<path d="M3.69844 8.75C3.48626 8.75 3.28278 8.66571 3.13275 8.51569C2.98272 8.36566 2.89844 8.16217 2.89844 7.95V1.55C2.89844 1.33783 2.98272 1.13434 3.13275 0.984315C3.28278 0.834285 3.48626 0.75 3.69844 0.75C3.91061 0.75 4.11409 0.834285 4.26412 0.984315C4.41415 1.13434 4.49844 1.33783 4.49844 1.55V7.95C4.49844 8.16217 4.41415 8.36566 4.26412 8.51569C4.11409 8.66571 3.91061 8.75 3.69844 8.75Z" fill="#50C2B7"/>
</svg>
