<svg width="24" height="24" viewBox="0 0 24 24" fill="none" xmlns="http://www.w3.org/2000/svg">
<g clip-path="url(#clip0_10200_69576)">
<path d="M10.0378 19.4725C7.89309 18.9085 6.11184 17.4497 5.11941 15.5156H5.67184C5.93149 15.5156 6.16971 15.3728 6.29202 15.1441C6.41415 14.9155 6.40042 14.6381 6.25705 14.4224L4.32364 11.0928L3.79593 8.77785C3.535 8.38655 2.88681 8.38655 2.62588 8.77785L1.46261 12.1876L0.117887 14.4224C-0.0254843 14.6381 -0.0392173 14.9155 0.0829141 15.1441C0.205229 15.3728 0.443449 15.5156 0.703092 15.5156H2.06595C3.36801 19.1931 6.64431 21.9283 10.6263 22.4474L10.0378 19.4725Z" fill="#652EDA"/>
<path d="M19.4725 13.9625C18.7787 16.6016 16.7277 18.6907 14.1093 19.435V18.3285C14.1093 18.0688 13.9665 17.8306 13.7378 17.7083C13.5093 17.5862 13.2319 17.5999 13.0162 17.7435L10.0378 19.4729L8.77785 20.2044C8.38655 20.4653 8.38655 21.1135 8.77785 21.3745L10.6263 22.4478L13.0162 23.8823C13.2319 24.0258 13.5093 24.0396 13.738 23.9174C13.9665 23.7951 14.1093 23.5569 14.1093 23.2972V22.3354C18.4832 21.4475 21.8638 17.8506 22.4474 13.374L19.4725 13.9625Z" fill="#78D3CA"/>
<path d="M23.9164 10.2623C23.7943 10.0336 23.5559 9.89081 23.2964 9.89081H22.3346C21.4467 5.51715 17.8496 2.13647 13.373 1.55273L13.9615 4.52765C16.6006 5.22144 18.6897 7.2724 19.434 9.89081H18.3275C18.0679 9.89081 17.8297 10.0336 17.7073 10.2623C17.5852 10.491 17.5989 10.7684 17.7425 10.9839L19.4719 13.9623L20.2034 15.2223C20.4644 15.6138 21.1125 15.6138 21.3735 15.2223L22.4468 13.3738L23.8813 10.9839C24.0248 10.7683 24.0386 10.4908 23.9164 10.2623Z" fill="#652EDA"/>
<path d="M15.2221 2.62588L13.3737 1.55252L10.9838 0.117887C10.7681 -0.0254844 10.4907 -0.0392173 10.2621 0.0829141C10.0334 0.205229 9.89062 0.443449 9.89062 0.703092V1.66476C5.0766 2.64218 1.45312 6.89755 1.45312 12C1.45312 12.0633 1.46155 12.1245 1.46265 12.1877L2.62592 10.1841C2.88684 9.79281 3.53503 9.79281 3.79596 10.1841L4.32367 11.0929C4.69135 7.96469 6.93127 5.40652 9.89062 4.56534V5.67184C9.89062 5.93149 10.0334 6.16971 10.2621 6.29202C10.4908 6.41415 10.7682 6.40042 10.9838 6.25705L13.9622 4.52743L15.2221 3.79593C15.6134 3.535 15.6134 2.88681 15.2221 2.62588Z" fill="#78D3CA"/>
</g>
<defs>
<clipPath id="clip0_10200_69576">
<rect width="24" height="24" fill="white"/>
</clipPath>
</defs>
</svg>
