<svg width="21" height="20" viewBox="0 0 21 20" fill="none" xmlns="http://www.w3.org/2000/svg">
<path d="M14.4167 16.6663C15.3371 16.6663 16.0833 15.9201 16.0833 14.9997C16.0833 14.0792 15.3371 13.333 14.4167 13.333C13.4962 13.333 12.75 14.0792 12.75 14.9997C12.75 15.9201 13.4962 16.6663 14.4167 16.6663Z" stroke="#652EDA" stroke-width="1.5"/>
<path d="M6.08464 16.6663C7.00511 16.6663 7.7513 15.9201 7.7513 14.9997C7.7513 14.0792 7.00511 13.333 6.08464 13.333C5.16416 13.333 4.41797 14.0792 4.41797 14.9997C4.41797 15.9201 5.16416 16.6663 6.08464 16.6663Z" stroke="#652EDA" stroke-width="1.5"/>
<path d="M9.41797 14.1663H12.7513M11.5013 5.83301H12.2871C13.3791 5.83301 13.9251 5.83301 14.3881 6.09511C14.851 6.35721 15.1596 6.84111 15.777 7.8089C16.2098 8.48751 16.6642 8.98009 17.3031 9.41834C17.9464 9.85951 18.2523 10.0752 18.4221 10.4213C18.5846 10.7528 18.5846 11.1455 18.5846 11.9308C18.5846 12.966 18.5846 13.4837 18.2938 13.8126C18.2813 13.8268 18.2686 13.8405 18.2554 13.8538C17.9492 14.1663 17.4675 14.1663 16.5038 14.1663H16.0846" stroke="#652EDA" stroke-width="1.5" stroke-linecap="round" stroke-linejoin="round"/>
<path d="M11.082 5.83301L11.9105 7.90431C12.3164 8.91917 12.5194 9.42659 12.9427 9.71309C13.3659 9.99967 13.9124 9.99967 15.0054 9.99967H17.7487" stroke="#652EDA" stroke-width="1.5" stroke-linecap="round" stroke-linejoin="round"/>
<path d="M4.30928 14.1663C3.182 14.1663 2.61837 14.1663 2.26817 13.8003C1.91797 13.4341 1.91797 12.8448 1.91797 11.6663V5.83301C1.91797 4.6545 1.91797 4.06524 2.26817 3.69912C2.61837 3.33301 3.182 3.33301 4.30928 3.33301H8.6933C9.82064 3.33301 10.3842 3.33301 10.7345 3.69912C11.0846 4.06524 11.0846 4.6545 11.0846 5.83301V14.1663H7.49768" stroke="#652EDA" stroke-width="1.5" stroke-linecap="round" stroke-linejoin="round"/>
</svg>
