<svg width="25" height="24" viewBox="0 0 25 24" fill="none" xmlns="http://www.w3.org/2000/svg">
<g clip-path="url(#clip0_10200_77441)">
<path d="M12.5 0C12.2432 0 11.9882 0.0080625 11.7354 0.0239531L1.74467 6.67205C0.947937 8.27733 0.5 10.0864 0.5 12C0.5 15.5098 2.0068 18.6677 4.40886 20.862C4.40886 20.862 8.31964 23.552 12.5 23.552C18.0934 23.552 23.9118 18.6274 23.9118 12C23.9118 4.14192 16.4352 0.660141 16.4352 0.660141C15.2025 0.232406 13.8784 0 12.5 0Z" fill="#652EDA"/>
<path d="M24.3838 10.3145L21.4746 9.98242C21.4746 16.6098 16.102 21.9824 9.47462 21.9824C7.66464 21.9824 5.94911 21.5798 4.41016 20.8622C5.34184 21.7134 6.40825 22.4195 7.57366 22.945L8.28025 22.9057L9.17627 23.5334C10.2321 23.8373 11.3477 24.0002 12.5013 24.0002C19.1288 24.0002 24.5013 18.6276 24.5013 12.0002C24.5013 11.428 24.4613 10.8652 24.3838 10.3145Z" fill="#501BC1"/>
<path d="M17.5764 1.12356C17.2057 0.950312 16.8247 0.795437 16.4345 0.660156L15.3732 1.59353C15.0825 1.84206 15.013 2.27078 15.2268 2.60284C15.4323 2.92206 15.8479 3.03344 16.1976 2.88573L16.4124 2.79498C16.6762 2.68361 16.9852 2.72392 17.199 2.91437C17.5769 3.25103 17.5111 3.84602 17.087 4.09694L14.5947 5.57167C14.1079 5.85972 13.7988 6.38336 13.8089 6.94891C13.8194 7.53634 14.1485 8.0148 14.81 8.07573C16.1789 8.20183 15.9818 6.75152 16.7858 6.75152H19.5433C19.963 6.75152 20.327 7.06534 20.3634 7.48352C20.4048 7.95995 20.0303 8.35947 19.5625 8.35947H16.2559C14.9698 8.35947 13.8483 9.35055 13.8097 10.6361C13.7698 11.9663 14.8362 13.0572 16.1575 13.0572H16.4937C17.1351 13.0572 17.655 13.5771 17.655 14.2185V18.3453C17.655 18.4678 17.6765 18.5886 17.717 18.7013L18.6881 18.6804L21.7119 13.763L22.1006 10.9448L23.0863 9.51747C23.0864 9.51751 21.1808 2.80839 17.5764 1.12356Z" fill="#78D3CA"/>
<path d="M24.3834 10.3147C23.8105 6.23494 21.1773 2.81035 17.5781 1.12402C19.97 3.31768 21.4743 6.48137 21.4743 9.98265C21.4743 13.419 20.0336 16.5141 17.7188 18.7017C17.8607 19.1071 18.2631 19.3886 18.7307 19.3218C19.029 19.2792 19.2822 19.0786 19.4308 18.8165L22.2948 13.7664C22.5483 13.3194 22.6136 12.7898 22.4763 12.2945L22.2543 11.4936C22.1813 11.2304 22.3965 10.9764 22.6681 11.0052L22.8261 11.022C23.2512 11.0671 23.6759 10.9329 23.9979 10.6517L24.3834 10.3147Z" fill="#50C2B7"/>
<path d="M12.3894 1.06138L11.7368 0.0244141C7.34761 0.299758 3.60155 2.93193 1.74609 6.67251L2.50228 11.8964C2.58713 12.4828 2.93587 12.998 3.44873 13.2947C3.74377 13.4653 3.87286 13.8238 3.75441 14.1433L3.49622 14.8398C3.26391 15.4665 3.45998 16.1715 3.98245 16.5884L4.67194 17.1384C4.90777 17.3266 5.09639 17.5673 5.22267 17.8413L7.01428 21.7291L8.06147 22.4681L8.80092 21.9639L8.53275 20.8432C8.38148 20.211 8.46253 19.5456 8.76108 18.9681L9.92395 16.7192C10.2443 16.0998 9.95025 15.3397 9.29644 15.0971L8.34108 14.7426C8.03761 14.63 7.83628 14.3404 7.83628 14.0168V13.9422C7.83628 13.5146 7.48964 13.168 7.06209 13.168H5.40127C4.99425 13.168 4.59445 13.0611 4.24177 12.8579L3.83662 12.6245C3.52889 12.4472 3.31955 12.1385 3.26873 11.7869L3.24286 11.6079C3.1777 11.1574 3.3818 10.7104 3.76481 10.4645L4.00289 10.3116C4.29131 10.1264 4.66716 10.1529 4.92675 10.3767L5.13895 10.5597C5.39733 10.7824 5.79994 10.6504 5.87625 10.3179L6.10256 9.33177C6.22317 8.8064 6.6083 8.38152 7.11942 8.2101L8.78967 7.64994C9.26667 7.48996 9.46678 6.92469 9.19669 6.50029L8.43741 5.30718C8.22877 4.97934 7.80942 4.85695 7.45716 5.0211L6.83011 5.31337C6.50578 5.46459 6.10167 5.39976 5.88277 5.11668C5.60034 4.75152 5.71383 4.2269 6.11227 4.00818L7.68816 3.14296C8.21091 2.85595 8.86608 3.01152 9.20395 3.50291L9.35039 3.71587C9.56691 4.03101 9.9248 4.21921 10.3072 4.21921H11.0163C11.4864 4.21921 11.9101 3.9358 12.0896 3.50137L12.5116 2.47991C12.7035 2.01524 12.658 1.48635 12.3894 1.06138Z" fill="#78D3CA"/>
<path d="M7.57122 22.9447C8.08722 23.1775 8.62202 23.3742 9.17378 23.5331L8.79831 21.9633C8.18837 21.9294 7.59386 21.8504 7.01172 21.7285L7.57122 22.9447Z" fill="#50C2B7"/>
</g>
<defs>
<clipPath id="clip0_10200_77441">
<rect width="24" height="24" fill="white" transform="translate(0.5)"/>
</clipPath>
</defs>
</svg>
