<svg width="21" height="20" viewBox="0 0 21 20" fill="none" xmlns="http://www.w3.org/2000/svg">
<path d="M7.41797 13.3333L14.6847 12.7278C16.9584 12.5383 17.4689 12.0417 17.7209 9.77406L18.2513 5" stroke="#652EDA" stroke-width="1.5" stroke-linecap="round"/>
<path d="M5.75 5H7.41667M19.0833 5H16.5833" stroke="#652EDA" stroke-width="1.5" stroke-linecap="round"/>
<path d="M9.91797 4.58333C10.3276 4.16192 11.4178 2.5 12.0013 2.5M14.0846 4.58333C13.675 4.16192 12.5848 2.5 12.0013 2.5M12.0013 2.5V9.16667" stroke="#652EDA" stroke-width="1.5" stroke-linecap="round" stroke-linejoin="round"/>
<ellipse cx="5.7526" cy="16.6667" rx="1.66667" ry="1.66667" stroke="#652EDA" stroke-width="1.5"/>
<ellipse cx="14.9167" cy="16.6667" rx="1.66667" ry="1.66667" stroke="#652EDA" stroke-width="1.5"/>
<path d="M7.41667 16.667L13.25 16.667" stroke="#652EDA" stroke-width="1.5" stroke-linecap="round"/>
<path d="M2.41797 1.66699H3.22297C4.01021 1.66699 4.69642 2.18749 4.88735 2.92943L7.36673 12.5641C7.49203 13.051 7.38481 13.5668 7.07483 13.9683L6.27808 15.0003" stroke="#652EDA" stroke-width="1.5" stroke-linecap="round"/>
</svg>
