<svg width="24" height="24" viewBox="0 0 24 24" fill="none" xmlns="http://www.w3.org/2000/svg">
<g clip-path="url(#clip0_10200_54004)">
<path d="M7.07812 8.48535L3.5625 12.7034H4.96875V18.3753L6.375 19.7815H10.5938V12.7034L7.07812 8.48535Z" fill="#78D3CA"/>
<path d="M4.96875 18.375L0 24H5.67188L7.78125 22.5938L9.1582 19.8398L9.1875 18.375H4.96875Z" fill="#78D3CA"/>
<path d="M16.9219 8.48535L13.4062 12.7034V19.7815H17.9326L19.0312 18.3753V12.7034H20.4375L16.9219 8.48535Z" fill="#54C3B9"/>
<path d="M12 0L7.07812 4.21875H9.1875V19.7812H12H14.8125V4.21875H16.9219L12 0Z" fill="#673FD8"/>
<path d="M14.8125 4.21875H16.9219L12 0V19.7812H14.8125V4.21875Z" fill="#542EC2"/>
<path d="M19.0312 18.375H14.8125L14.7363 19.629L16.4882 23.1328L18.3281 24H24L19.0312 18.375Z" fill="#54C3B9"/>
<path d="M14.8125 18.375H12H9.1875L5.67188 24H12H18.3281L14.8125 18.375Z" fill="#673FD8"/>
<path d="M14.8125 18.375H12V24H18.3281L14.8125 18.375Z" fill="#542EC2"/>
</g>
<defs>
<clipPath id="clip0_10200_54004">
<rect width="24" height="24" fill="white"/>
</clipPath>
</defs>
</svg>
