<svg width="29" height="25" viewBox="0 0 29 25" fill="none" xmlns="http://www.w3.org/2000/svg">
<path fill-rule="evenodd" clip-rule="evenodd" d="M26.0162 7.61568L26.5046 7.06081C26.9713 6.53092 26.8904 5.68796 26.3065 5.1577C25.723 4.62598 24.8661 4.61459 24.3997 5.14447L23.9121 5.69971L26.0162 7.61568Z" fill="#78D3CA"/>
<path fill-rule="evenodd" clip-rule="evenodd" d="M17.5879 2.1543H19.635V3.98428H17.5879V2.1543Z" fill="#78D3CA"/>
<path fill-rule="evenodd" clip-rule="evenodd" d="M16.8248 0.28125H20.3988C20.8152 0.28125 21.1514 0.617482 21.1514 1.03639V1.89994C21.1514 2.31885 20.8152 2.65508 20.3988 2.65508H16.8248C16.4081 2.65508 16.0723 2.31885 16.0723 1.89994V1.03639C16.0723 0.617482 16.4081 0.28125 16.8248 0.28125Z" fill="#78D3CA"/>
<path fill-rule="evenodd" clip-rule="evenodd" d="M18.6107 3.85645C24.241 3.85645 28.8053 8.42846 28.8053 14.068C28.8053 19.7082 24.241 24.2806 18.6107 24.2806C15.8305 24.2806 13.9891 23.359 10.2156 22.0758L11.2662 21.0179C11.738 20.5416 11.2754 19.674 10.5786 19.943C7.40998 21.1619 5.5631 19.8603 4.66244 16.9202C6.02537 17.7864 7.90754 17.1892 8.49732 16.598C9.41121 15.6834 9.0544 14.6254 6.99732 15.3052C4.35928 16.175 1.5783 14.6526 0.242188 10.8872C4.27844 12.9149 4.57572 8.74191 8.83906 9.85386C8.47637 8.39098 7.49303 7.9085 5.24083 7.96619C7.47429 5.1514 10.7227 6.60877 14.1486 4.88645C15.4961 4.22685 17.0093 3.85645 18.6107 3.85645Z" fill="#652EDA"/>
<path fill-rule="evenodd" clip-rule="evenodd" d="M25.9215 14.0684C25.9215 18.1127 22.6496 21.3909 18.6112 21.3909C16.672 21.3909 14.8127 20.6203 13.4416 19.246C12.071 17.8731 11.3008 16.0104 11.3008 14.0684C11.3008 12.1252 12.0706 10.2647 13.4416 8.88965C14.8127 7.5168 16.672 6.74512 18.6112 6.74512C22.6496 6.74512 25.9215 10.0248 25.9215 14.0684Z" fill="#F2F2F2"/>
<path d="M18.5012 7.77545C18.2903 7.77875 18.1209 7.95404 18.1231 8.16533V8.71837C18.1231 9.22914 18.8911 9.22914 18.8911 8.71837V8.16533C18.8947 7.94816 18.7184 7.77177 18.5012 7.77545Z" fill="black"/>
<path d="M18.5012 19.0303C18.2903 19.0322 18.1209 19.2067 18.1231 19.4202V19.9714C18.1231 20.484 18.8911 20.484 18.8911 19.9714V19.4202C18.8947 19.2034 18.7184 19.0263 18.5012 19.0303Z" fill="black"/>
<path d="M23.8499 13.6846C23.3391 13.6846 23.3391 14.4529 23.8499 14.4529H24.4011C24.9115 14.4529 24.9115 13.6846 24.4011 13.6846H23.8499Z" fill="black"/>
<path d="M12.6113 13.6846C12.1009 13.6846 12.1009 14.4529 12.6113 14.4529H13.1644C13.6751 14.4529 13.6751 13.6846 13.1644 13.6846H12.6113Z" fill="black"/>
<path d="M22.2791 17.4648C21.9337 17.4648 21.7647 17.8838 22.012 18.1233L22.4 18.5136C22.5481 18.6734 22.7991 18.6764 22.9531 18.5235C23.1063 18.3695 23.1011 18.12 22.9413 17.9723L22.5532 17.5824C22.4809 17.5075 22.3831 17.4648 22.2791 17.4648Z" fill="black"/>
<path d="M14.3326 9.50781C13.9883 9.50781 13.82 9.92673 14.0659 10.1667L14.4557 10.5547C14.6031 10.7138 14.8548 10.7201 15.0088 10.5657C15.162 10.4125 15.1561 10.1608 14.997 10.0127L14.609 9.62503C14.5362 9.55007 14.4366 9.50781 14.3326 9.50781Z" fill="black"/>
<path d="M22.6648 9.50804C22.5652 9.51024 22.4685 9.5525 22.3998 9.62526L22.0118 10.0129C21.8527 10.161 21.8468 10.4127 22 10.566C22.1536 10.7199 22.4057 10.7141 22.5531 10.5549L22.9411 10.1669C23.1928 9.92291 23.0142 9.49664 22.6648 9.50804Z" fill="black"/>
<path d="M14.7205 17.465C14.6209 17.469 14.5242 17.5091 14.4555 17.5826L14.0656 17.9725C13.9062 18.1202 13.9025 18.3697 14.0557 18.5237C14.2093 18.6769 14.4607 18.6736 14.6088 18.5137L14.9968 18.1235C15.2485 17.8802 15.0703 17.4558 14.7205 17.465Z" fill="black"/>
<path fill-rule="evenodd" clip-rule="evenodd" d="M18.6098 13.4943C18.9306 13.4943 19.1841 13.7464 19.1841 14.0687C19.1841 14.3917 18.931 14.643 18.6098 14.643C18.2894 14.643 18.0354 14.3917 18.0354 14.0687C18.0354 13.7461 18.2894 13.4943 18.6098 13.4943ZM21.2001 10.9698C21.1023 10.9717 21.0064 11.0121 20.937 11.083L19.1687 12.8557C18.9975 12.7752 18.8093 12.7271 18.6098 12.7271C17.8745 12.7271 17.2715 13.3338 17.2715 14.0687C17.2715 14.804 17.8745 15.4114 18.6098 15.4114C19.3451 15.4114 19.9485 14.804 19.9485 14.0687C19.9485 13.8096 19.8713 13.57 19.7431 13.3643L21.4786 11.6247C21.7244 11.3807 21.5477 10.9618 21.2001 10.9698Z" fill="black"/>
</svg>
