<svg width="141" height="29" viewBox="0 0 141 29" fill="none" xmlns="http://www.w3.org/2000/svg">
<path d="M21.0781 28.4207L28.6023 0.177734L0.359375 7.70192L6.68425 14.0268L22.605 6.17536L14.6446 21.9871L21.0781 28.4207Z" fill="black"/>
<path fill-rule="evenodd" clip-rule="evenodd" d="M22.605 6.17536L14.6446 21.9871H6.68425V14.0268L22.605 6.17536Z" fill="black"/>
<path d="M47.2831 21.0691C46.0061 21.0691 44.8166 20.8421 43.7145 20.3882C42.63 19.9168 41.6766 19.2708 40.8544 18.4502C40.0322 17.6296 39.385 16.6693 38.9127 15.5694C38.4579 14.452 38.2305 13.2473 38.2305 11.9553C38.2305 10.6808 38.4579 9.50231 38.9127 8.41983C39.385 7.3199 40.0322 6.35964 40.8544 5.53905C41.6766 4.71847 42.63 4.0812 43.7145 3.62726C44.8166 3.15586 46.0061 2.92016 47.2831 2.92016C48.5601 2.92016 49.7408 3.15586 50.8254 3.62726C51.91 4.0812 52.8633 4.71847 53.6855 5.53905C54.5077 6.35964 55.1462 7.3199 55.601 8.41983C56.0558 9.50231 56.2832 10.6808 56.2832 11.9553C56.2832 13.2473 56.0558 14.452 55.601 15.5694C55.1462 16.6693 54.5077 17.6296 53.6855 18.4502C52.8633 19.2708 51.91 19.9168 50.8254 20.3882C49.7408 20.8421 48.5601 21.0691 47.2831 21.0691ZM47.2831 18.5288C48.1402 18.5288 48.9449 18.3629 49.6971 18.0312C50.4668 17.682 51.1403 17.2106 51.7175 16.617C52.2948 16.0233 52.7409 15.3337 53.0558 14.548C53.3706 13.7449 53.5281 12.8807 53.5281 11.9553C53.5281 11.0475 53.3706 10.2007 53.0558 9.41501C52.7409 8.62934 52.2948 7.9397 51.7175 7.34609C51.1403 6.75247 50.4755 6.2898 49.7233 5.95808C48.9711 5.62635 48.1577 5.46049 47.2831 5.46049C46.4084 5.46049 45.5863 5.62635 44.8166 5.95808C44.0469 6.2898 43.3734 6.75247 42.7961 7.34609C42.2364 7.9397 41.7903 8.62934 41.4579 9.41501C41.1431 10.2007 40.9856 11.0475 40.9856 11.9553C40.9856 12.8807 41.1431 13.7449 41.4579 14.548C41.7903 15.3337 42.2364 16.0233 42.7961 16.617C43.3734 17.2106 44.0469 17.682 44.8166 18.0312C45.5863 18.3629 46.4084 18.5288 47.2831 18.5288Z" fill="black"/>
<path d="M61.808 26.6473H59.2103V14.3123C59.2103 13.0378 59.5077 11.8942 60.1025 10.8816C60.7147 9.86895 61.5369 9.07456 62.569 8.4984C63.6011 7.90479 64.7643 7.60798 66.0588 7.60798C67.3533 7.60798 68.5166 7.91351 69.5487 8.52459C70.5807 9.1182 71.3942 9.93006 71.9889 10.9602C72.5837 11.9728 72.8811 13.0902 72.8811 14.3123C72.8811 15.6043 72.5924 16.7654 72.0152 17.7955C71.4379 18.8081 70.642 19.6112 69.6274 20.2048C68.6303 20.781 67.4757 21.0691 66.1638 21.0691C65.1317 21.0691 64.1783 20.8246 63.3037 20.3358C62.4465 19.8469 61.7556 19.2097 61.2308 18.424C60.7235 17.6209 60.4698 16.7479 60.4698 15.8051L61.808 16.486V26.6473ZM66.0588 18.6335C66.8635 18.6335 67.5807 18.4415 68.2105 18.0574C68.8577 17.6558 69.365 17.132 69.7323 16.486C70.0997 15.8226 70.2834 15.1067 70.2834 14.3385C70.2834 13.5529 70.0997 12.837 69.7323 12.191C69.365 11.545 68.8577 11.03 68.2105 10.6459C67.5807 10.2618 66.8635 10.0697 66.0588 10.0697C65.2541 10.0697 64.5282 10.2618 63.8809 10.6459C63.2512 11.03 62.7439 11.545 62.3591 12.191C61.9917 12.837 61.808 13.5529 61.808 14.3385C61.808 15.1067 61.9917 15.8226 62.3591 16.486C62.7439 17.132 63.2512 17.6558 63.8809 18.0574C64.5282 18.4415 65.2541 18.6335 66.0588 18.6335Z" fill="black"/>
<path d="M81.6664 21.0953C80.6168 21.0953 79.7246 20.8858 78.9899 20.4667C78.2552 20.0477 77.6955 19.4716 77.3106 18.7383C76.9433 17.9875 76.7596 17.1233 76.7596 16.1456V4.59625H79.3573V16.067C79.3573 16.905 79.5847 17.5598 80.0395 18.0312C80.5118 18.5026 81.1328 18.7383 81.9025 18.7383C82.3223 18.7383 82.7422 18.6684 83.162 18.5288C83.5993 18.3891 83.9754 18.2058 84.2903 17.9788V20.362C83.9579 20.5715 83.5556 20.7461 83.0833 20.8858C82.611 21.0254 82.1387 21.0953 81.6664 21.0953ZM84.2903 10.1745H74.2144V7.92224H84.2903V10.1745Z" fill="black"/>
<path d="M88.1526 7.92224H90.7503V20.7548H88.1526V7.92224ZM89.4384 5.38192C89.141 5.38192 88.8611 5.31208 88.5987 5.17241C88.3363 5.01527 88.1264 4.80576 87.9689 4.54387C87.8115 4.28199 87.7328 3.99391 87.7328 3.67964C87.7328 3.36537 87.8115 3.0773 87.9689 2.81541C88.1264 2.55352 88.3363 2.34401 88.5987 2.18687C88.8611 2.02974 89.141 1.95117 89.4384 1.95117C89.7532 1.95117 90.0331 2.02974 90.278 2.18687C90.5404 2.34401 90.7416 2.55352 90.8815 2.81541C91.039 3.0773 91.1177 3.36537 91.1177 3.67964C91.1177 3.99391 91.039 4.28199 90.8815 4.54387C90.7416 4.80576 90.5404 5.01527 90.278 5.17241C90.0331 5.31208 89.7532 5.38192 89.4384 5.38192Z" fill="black"/>
<path d="M110.936 7.5556C112.23 7.5556 113.315 7.84368 114.189 8.41983C115.081 8.99599 115.755 9.77293 116.21 10.7506C116.682 11.7284 116.918 12.8108 116.918 13.9981V20.7548H114.321V14.4171C114.321 13.6314 114.189 12.9069 113.927 12.2434C113.682 11.58 113.288 11.0475 112.746 10.6459C112.221 10.2443 111.557 10.0435 110.752 10.0435C109.982 10.0435 109.335 10.2443 108.81 10.6459C108.285 11.03 107.892 11.5538 107.629 12.2172C107.367 12.8632 107.236 13.579 107.236 14.3647V20.7548H104.638V14.3647C104.638 13.579 104.507 12.8632 104.245 12.2172C104 11.5538 103.606 11.03 103.064 10.6459C102.539 10.2443 101.874 10.0435 101.07 10.0435C100.265 10.0435 99.6002 10.2443 99.0754 10.6459C98.5681 11.0475 98.192 11.58 97.9471 12.2434C97.7022 12.9069 97.5798 13.6314 97.5798 14.4171V20.7548H94.982V14.0243C94.982 12.8196 95.2007 11.7284 95.638 10.7506C96.0929 9.77293 96.7576 8.99599 97.6322 8.41983C98.5244 7.84368 99.6089 7.5556 100.886 7.5556C101.97 7.5556 102.906 7.76511 103.694 8.18413C104.498 8.60316 105.119 9.17931 105.557 9.9126C106.011 10.6459 106.248 11.4927 106.265 12.4529H105.688C105.723 11.4927 105.959 10.6459 106.396 9.9126C106.851 9.17931 107.463 8.60316 108.233 8.18413C109.02 7.76511 109.921 7.5556 110.936 7.5556Z" fill="black"/>
<path d="M126.274 21.0691C125.032 21.0691 123.921 20.7635 122.941 20.1525C121.979 19.5414 121.218 18.7295 120.658 17.7169C120.099 16.6868 119.819 15.5519 119.819 14.3123C119.819 13.0902 120.116 11.9728 120.711 10.9602C121.323 9.93006 122.145 9.1182 123.177 8.52459C124.209 7.91351 125.373 7.60798 126.667 7.60798C127.962 7.60798 129.125 7.90479 130.157 8.4984C131.189 9.07456 132.003 9.86895 132.597 10.8816C133.21 11.8942 133.516 13.0378 133.516 14.3123V20.7548H131.049V15.9622L131.941 15.2813C131.941 16.3638 131.696 17.3415 131.207 18.2145C130.734 19.0875 130.07 19.7858 129.212 20.3096C128.373 20.8159 127.393 21.0691 126.274 21.0691ZM126.667 18.6073C127.472 18.6073 128.198 18.4153 128.845 18.0312C129.492 17.6471 130 17.132 130.367 16.486C130.734 15.8226 130.918 15.1067 130.918 14.3385C130.918 13.5529 130.734 12.837 130.367 12.191C130 11.545 129.492 11.03 128.845 10.6459C128.198 10.2443 127.472 10.0435 126.667 10.0435C125.863 10.0435 125.137 10.2443 124.489 10.6459C123.86 11.03 123.352 11.545 122.967 12.191C122.6 12.837 122.416 13.5529 122.416 14.3385C122.416 15.1067 122.6 15.8226 122.967 16.486C123.352 17.132 123.86 17.6471 124.489 18.0312C125.137 18.4153 125.863 18.6073 126.667 18.6073Z" fill="black"/>
<path d="M137.762 2.02974H140.359V20.7548H137.762V2.02974Z" fill="black"/>
</svg>
