<svg width="128" height="33" viewBox="0 0 128 33" fill="none" xmlns="http://www.w3.org/2000/svg">
<path d="M31.9076 8.1035C32.3112 6.47671 31.3549 4.82179 29.7718 4.40712C28.1887 3.99244 26.5782 4.97506 26.1746 6.60184C25.7711 8.22863 26.7273 9.88356 28.3105 10.2982C29.8936 10.7129 31.5041 9.73029 31.9076 8.1035Z" fill="black"/>
<path d="M21.9749 5.37806C24.7087 1.87274 19.9156 -1.65048 17.4108 1.56059C17.2702 1.70534 1.02737 22.2753 0.917453 22.4466C-1.9688 26.1472 2.62286 29.9289 5.48163 26.2641C5.62204 26.1192 21.865 5.54925 21.9749 5.37806Z" fill="black"/>
<path d="M25.5548 16.5781C28.1783 13.2144 23.5867 9.43281 20.992 12.7594C20.8502 12.9051 9.81622 26.9286 9.7054 27.1013C7.06466 30.6157 11.6561 34.3973 14.2682 30.92C14.41 30.7743 25.4442 16.7508 25.5548 16.5781Z" fill="black"/>
<path d="M5.29549 10.1903C6.82241 9.59329 7.58925 7.83738 7.00828 6.26834C6.42732 4.69931 4.71853 3.91131 3.19161 4.5083C1.66469 5.1053 0.897848 6.86121 1.47882 8.43024C2.05978 9.99928 3.76857 10.7873 5.29549 10.1903Z" fill="black"/>
<path d="M47.2275 23.7787L42.9102 9.12534H44.4303L47.3693 19.1944C47.572 19.9107 47.7545 20.6475 47.9369 21.6094C48.1801 20.5452 48.3828 19.9107 48.6058 19.1944L51.7677 9.12534H53.2879L56.4499 19.1944C56.6728 19.9312 56.8755 20.6679 57.0985 21.6094C57.3215 20.4838 57.5039 19.7675 57.666 19.2149L60.6658 9.12534H62.1455L57.7876 23.7787H56.4093L52.5177 11.3356L48.626 23.7787H47.2275Z" fill="black"/>
<path d="M62.7977 23.7787H61.3181L66.6489 9.12534H68.4528L73.8444 23.7787H72.3242L70.9054 19.8903H64.2166L62.7977 23.7787ZM67.3583 11.1924L64.6625 18.6009H70.4392L67.7231 11.1924C67.6623 10.9877 67.561 10.7421 67.5407 10.5989C67.5204 10.7217 67.4393 10.9877 67.3583 11.1924Z" fill="black"/>
<path d="M77.8409 17.6595L72.9155 9.12534H74.5573L78.1449 15.4492C78.307 15.7562 78.4287 16.0018 78.5705 16.3292C78.753 15.9609 78.753 15.9609 79.0165 15.4492L82.5636 9.12534H84.1648L79.3002 17.6595V23.7787H77.8409V17.6595Z" fill="black"/>
<path d="M88.6077 8.81836V21.3638H94.81V23.7787H86.0133V8.81836H88.6077Z" fill="black"/>
<path d="M99.5142 8.81836V23.7787H96.9197V8.81836H99.5142Z" fill="black"/>
<path d="M105.352 23.7787H102.799V8.81836H105.373L112.325 19.4195V8.81836H114.879V23.7787H112.325L105.352 13.1775V23.7787Z" fill="black"/>
<path d="M127.361 23.7787H118.159V8.81836H127.361V11.2333H120.753V15.0808H126.672V17.3934H120.753V21.3638H127.361V23.7787Z" fill="black"/>
</svg>
