<svg width="160" height="38" viewBox="0 0 160 38" fill="none" xmlns="http://www.w3.org/2000/svg">
<path fill-rule="evenodd" clip-rule="evenodd" d="M0 19.0003C11.0761 19.0003 17.4257 12.7537 17.4257 1.85742C17.4257 12.7537 23.7754 19.0003 34.8515 19.0003C23.7754 19.0003 17.4257 25.2468 17.4257 36.1431C17.4257 25.2468 11.0761 19.0003 0 19.0003Z" fill="black"/>
<path d="M41.7344 26.7213L47.8175 10.3577H51.2393L57.3225 26.7213H54.0908L52.7601 22.9343H46.273L44.9185 26.7213H41.7344ZM47.1047 20.5966H51.9284L49.5047 13.794L47.1047 20.5966Z" fill="black"/>
<path d="M63.4231 27.0018C62.2192 27.0018 61.1578 26.7447 60.239 26.2304C59.3201 25.7161 58.5914 24.9992 58.0528 24.0797C57.53 23.1603 57.2687 22.1083 57.2687 20.9239C57.2687 19.7395 57.53 18.6875 58.0528 17.7681C58.5914 16.8486 59.3201 16.1317 60.239 15.6174C61.1578 15.1031 62.2192 14.846 63.4231 14.846C64.9281 14.846 66.1954 15.2356 67.2251 16.0148C68.2548 16.7784 68.9122 17.8382 69.1974 19.194H65.9894C65.831 18.633 65.5142 18.1966 65.039 17.8849C64.5795 17.5577 64.033 17.394 63.3994 17.394C62.5597 17.394 61.8469 17.7057 61.2607 18.3291C60.6746 18.9525 60.3815 19.8174 60.3815 20.9239C60.3815 22.0304 60.6746 22.8953 61.2607 23.5187C61.8469 24.1421 62.5597 24.4538 63.3994 24.4538C64.033 24.4538 64.5795 24.2979 65.039 23.9862C65.5142 23.6746 65.831 23.2304 65.9894 22.6538H69.1974C68.9122 23.9629 68.2548 25.0148 67.2251 25.8096C66.1954 26.6044 64.9281 27.0018 63.4231 27.0018Z" fill="black"/>
<path d="M70.7089 26.7213V15.1265H73.394L73.6554 16.6927C74.0356 16.1317 74.5346 15.6875 75.1524 15.3603C75.7861 15.0174 76.5148 14.846 77.3386 14.846C79.1604 14.846 80.4515 15.5395 81.2118 16.9265C81.6396 16.2875 82.2099 15.781 82.9227 15.407C83.6515 15.033 84.4435 14.846 85.299 14.846C86.8356 14.846 88.0158 15.2979 88.8396 16.2018C89.6633 17.1057 90.0752 18.4304 90.0752 20.1758V26.7213H87.0336V20.4564C87.0336 19.459 86.8356 18.6953 86.4396 18.1655C86.0594 17.6356 85.4653 17.3707 84.6574 17.3707C83.8336 17.3707 83.1683 17.6668 82.6614 18.259C82.1703 18.8512 81.9247 19.6771 81.9247 20.7369V26.7213H78.8831V20.4564C78.8831 19.459 78.6851 18.6953 78.2891 18.1655C77.893 17.6356 77.2831 17.3707 76.4594 17.3707C75.6515 17.3707 74.994 17.6668 74.4871 18.259C73.996 18.8512 73.7505 19.6771 73.7505 20.7369V26.7213H70.7089Z" fill="black"/>
<path d="M97.5015 27.0018C96.3134 27.0018 95.2599 26.7525 94.3411 26.2538C93.4223 25.7551 92.7015 25.0538 92.1787 24.1499C91.656 23.246 91.3946 22.2018 91.3946 21.0174C91.3946 19.8174 91.6481 18.7499 92.155 17.8148C92.6778 16.8797 93.3906 16.1551 94.2936 15.6408C95.2124 15.1109 96.2896 14.846 97.5253 14.846C98.6817 14.846 99.7035 15.0953 100.591 15.594C101.478 16.0927 102.167 16.7784 102.658 17.6512C103.165 18.5083 103.418 19.4668 103.418 20.5265C103.418 20.6979 103.41 20.8771 103.395 21.0642C103.395 21.2512 103.387 21.446 103.371 21.6486H94.4124C94.4758 22.5525 94.7926 23.2616 95.3629 23.7758C95.949 24.2901 96.654 24.5473 97.4778 24.5473C98.0956 24.5473 98.6104 24.4148 99.0223 24.1499C99.45 23.8694 99.7669 23.5109 99.9728 23.0746H103.062C102.84 23.807 102.468 24.4771 101.945 25.0849C101.438 25.6771 100.804 26.1447 100.044 26.4875C99.2995 26.8304 98.452 27.0018 97.5015 27.0018ZM97.5253 17.2771C96.7807 17.2771 96.1233 17.4875 95.553 17.9083C94.9827 18.3135 94.6183 18.9369 94.4599 19.7784H100.329C100.282 19.0148 99.9966 18.407 99.4738 17.9551C98.951 17.5031 98.3015 17.2771 97.5253 17.2771Z" fill="black"/>
<path d="M116.866 27.0018C115.187 27.0018 113.746 26.6512 112.542 25.9499C111.338 25.233 110.411 24.2434 109.761 22.981C109.112 21.7031 108.787 20.2304 108.787 18.5629C108.787 16.8953 109.112 15.4226 109.761 14.1447C110.411 12.8668 111.338 11.8694 112.542 11.1525C113.746 10.4356 115.187 10.0771 116.866 10.0771C118.862 10.0771 120.494 10.5681 121.761 11.5499C123.045 12.5161 123.845 13.8797 124.161 15.6408H120.811C120.605 14.7525 120.161 14.059 119.48 13.5603C118.815 13.046 117.928 12.7888 116.819 12.7888C115.282 12.7888 114.078 13.3031 113.207 14.3317C112.336 15.3603 111.9 16.7707 111.9 18.5629C111.9 20.3551 112.336 21.7655 113.207 22.794C114.078 23.807 115.282 24.3135 116.819 24.3135C117.928 24.3135 118.815 24.0797 119.48 23.6122C120.161 23.1291 120.605 22.4668 120.811 21.6252H124.161C123.845 23.3083 123.045 24.6252 121.761 25.5759C120.494 26.5265 118.862 27.0018 116.866 27.0018Z" fill="black"/>
<path d="M131.25 27.0018C130.109 27.0018 129.08 26.7447 128.161 26.2304C127.258 25.7161 126.537 25.007 125.998 24.1031C125.476 23.1836 125.214 22.1239 125.214 20.9239C125.214 19.7239 125.484 18.672 126.022 17.7681C126.561 16.8486 127.282 16.1317 128.185 15.6174C129.103 15.1031 130.133 14.846 131.274 14.846C132.398 14.846 133.412 15.1031 134.315 15.6174C135.234 16.1317 135.955 16.8486 136.478 17.7681C137.016 18.672 137.285 19.7239 137.285 20.9239C137.285 22.1239 137.016 23.1836 136.478 24.1031C135.955 25.007 135.234 25.7161 134.315 26.2304C133.396 26.7447 132.375 27.0018 131.25 27.0018ZM131.25 24.407C132.042 24.407 132.731 24.1187 133.317 23.5421C133.903 22.9499 134.196 22.0771 134.196 20.9239C134.196 19.7707 133.903 18.9057 133.317 18.3291C132.731 17.7369 132.05 17.4408 131.274 17.4408C130.466 17.4408 129.769 17.7369 129.183 18.3291C128.612 18.9057 128.327 19.7707 128.327 20.9239C128.327 22.0771 128.612 22.9499 129.183 23.5421C129.769 24.1187 130.458 24.407 131.25 24.407Z" fill="black"/>
<path d="M138.817 26.7213V15.1265H141.526L141.811 17.3005C142.239 16.5525 142.817 15.9603 143.546 15.5239C144.29 15.072 145.161 14.846 146.159 14.846V18.0018H145.304C144.639 18.0018 144.045 18.1031 143.522 18.3057C142.999 18.5083 142.587 18.859 142.286 19.3577C142.001 19.8564 141.858 20.5499 141.858 21.4382V26.7213H138.817Z" fill="black"/>
<path d="M147.05 31.8642V15.1265H149.759L150.092 16.7862C150.472 16.272 150.971 15.82 151.589 15.4304C152.222 15.0408 153.038 14.846 154.036 14.846C155.145 14.846 156.135 15.1109 157.007 15.6408C157.878 16.1707 158.567 16.8953 159.074 17.8148C159.581 18.7343 159.834 19.7784 159.834 20.9473C159.834 22.1161 159.581 23.1603 159.074 24.0797C158.567 24.9836 157.878 25.7005 157.007 26.2304C156.135 26.7447 155.145 27.0018 154.036 27.0018C153.149 27.0018 152.373 26.8382 151.708 26.5109C151.042 26.1836 150.504 25.7239 150.092 25.1317V31.8642H147.05ZM153.395 24.3836C154.361 24.3836 155.161 24.0642 155.795 23.4252C156.428 22.7862 156.745 21.9603 156.745 20.9473C156.745 19.9343 156.428 19.1005 155.795 18.446C155.161 17.7914 154.361 17.4642 153.395 17.4642C152.413 17.4642 151.605 17.7914 150.971 18.446C150.353 19.0849 150.044 19.9109 150.044 20.9239C150.044 21.9369 150.353 22.7707 150.971 23.4252C151.605 24.0642 152.413 24.3836 153.395 24.3836Z" fill="black"/>
</svg>
