<svg width="138" height="36" viewBox="0 0 138 36" fill="none" xmlns="http://www.w3.org/2000/svg">
<path d="M20.6762 3.50533L17.4758 2.68066L14.7788 12.3601L12.3439 3.62144L9.14344 4.44611L11.7742 13.8876L5.22158 7.58627L2.87872 9.83929L10.0661 16.7511L1.11536 14.4447L0.257812 17.5224L10.0376 20.0424C9.92567 19.578 9.86643 19.0941 9.86643 18.5969C9.86643 15.0774 12.8333 12.2243 16.4931 12.2243C20.1529 12.2243 23.1197 15.0774 23.1197 18.5969C23.1197 19.0909 23.0612 19.5718 22.9506 20.0335L31.8387 22.3237L32.6962 19.246L22.8775 16.716L31.8288 14.4094L30.9712 11.3318L21.1529 13.8617L27.7055 7.5604L25.3626 5.30737L18.275 12.1233L20.6762 3.50533Z" fill="black"/>
<path d="M22.9412 20.0693C22.6669 21.1849 22.0876 22.1871 21.2927 22.99L27.7317 29.1822L30.0746 26.9291L22.9412 20.0693Z" fill="black"/>
<path d="M21.2277 23.0548C20.4233 23.8449 19.4067 24.4345 18.2667 24.7383L20.6097 33.1473L23.8101 32.3226L21.2277 23.0548Z" fill="black"/>
<path d="M18.1471 24.7691C17.6182 24.8999 17.0638 24.9694 16.4925 24.9694C15.8804 24.9694 15.2877 24.8895 14.725 24.7402L12.3799 33.1568L15.5802 33.9814L18.1471 24.7691Z" fill="black"/>
<path d="M14.6119 24.7091C13.4892 24.3902 12.4907 23.793 11.7027 23.0007L5.24788 29.208L7.59074 31.461L14.6119 24.7091Z" fill="black"/>
<path d="M11.6495 22.9458C10.875 22.1484 10.3109 21.1596 10.0423 20.0613L1.12527 22.359L1.98282 25.4366L11.6495 22.9458Z" fill="black"/>
<path d="M51.9555 9.91309V21.0037L44.5626 9.91309H41.6055V25.2256H44.5626V14.2225L51.9555 25.2256H54.9126V9.91309H51.9555Z" fill="black"/>
<path d="M56.2451 12.7787H59.2932V9.91309H56.2451V12.7787ZM56.2906 25.2256V14.2881H59.2477V25.2256H56.2906Z" fill="black"/>
<path d="M71.9711 19.7568C71.9711 15.9725 69.1732 14.1787 66.216 14.1568C63.2362 14.135 60.4837 15.9725 60.4837 19.7568C60.4837 23.5412 63.2362 25.3787 66.216 25.3568C68.923 25.335 70.7882 24.1318 71.6526 22.1412L69.3552 21.2225C68.65 22.5787 67.5354 23.06 66.216 23.0818C65.0787 23.1037 63.7821 22.5787 63.5091 20.6318H71.9029C71.9484 20.3475 71.9711 20.0631 71.9711 19.7568ZM66.216 16.41C67.3534 16.4318 68.5135 17.0225 68.8775 18.5975H63.5546C63.9413 17.0006 65.1014 16.3881 66.216 16.41Z" fill="black"/>
<path d="M78.8052 16.3225V14.1568H76.9399V11.2256L73.9828 12.1006V14.1568H72.1175V16.3225H73.9828V21.9881C73.9828 24.1318 74.1648 25.2256 77.6224 25.2256H78.4185V22.7318H77.6224C77.0764 22.7318 76.9399 22.6443 76.9399 21.9881V16.3225H78.8052Z" fill="black"/>
<path d="M83.1994 22.8412L89.4776 16.6725V14.2881H80.0602V16.6725H86.1565L79.8783 22.8412V25.2256H89.5458V22.8412H83.1994Z" fill="black"/>
<path d="M90.6061 22.1412L93.586 21.7037C93.7907 22.7975 95.1328 23.2131 95.9517 23.2131C96.7933 23.2131 98.2491 23.0381 98.2491 21.7256C98.2491 19.1662 90.9473 22.36 90.9473 17.46C90.9473 14.31 94.7461 14.135 95.9517 14.135C97.089 14.135 100.387 14.31 101.07 16.8475L98.2491 17.4162C97.9989 16.2568 96.7251 16.0381 96.0427 16.0381C95.3602 16.0381 93.9044 16.1912 93.9044 17.46C93.9044 19.9975 101.206 16.76 101.206 21.7256C101.206 25.0725 97.2028 25.3568 95.9517 25.3568C94.8143 25.3568 91.1975 25.0725 90.6061 22.1412Z" fill="black"/>
<path d="M105.048 19.7568C105.048 22.4256 106.526 23.235 108.073 23.2131C109.461 23.1912 110.416 22.6443 110.985 21.1131L113.419 22.2506C112.532 24.4818 110.371 25.335 108.073 25.3568C105.093 25.3787 102.091 23.5412 102.091 19.7568C102.091 15.9725 105.093 14.135 108.073 14.1568C110.371 14.1787 112.532 15.0318 113.419 17.2631L110.985 18.4006C110.416 16.8693 109.461 16.3225 108.073 16.3006C106.526 16.2787 105.048 17.0881 105.048 19.7568Z" fill="black"/>
<path d="M121.358 14.1131C119.833 14.1131 118.446 14.8787 117.559 16.5193V9.91309H114.602V25.2256H117.559V21.3537C117.559 16.3443 119.72 15.9287 120.516 15.9287C121.79 15.9287 121.972 17.1975 121.972 19.0568V25.2256H124.929V19.0568C124.929 16.7381 124.542 14.1131 121.358 14.1131Z" fill="black"/>
<path d="M137.414 19.7568C137.414 15.9725 134.616 14.1787 131.659 14.1568C128.679 14.135 125.927 15.9725 125.927 19.7568C125.927 23.5412 128.679 25.3787 131.659 25.3568C134.366 25.335 136.231 24.1318 137.095 22.1412L134.798 21.2225C134.093 22.5787 132.978 23.06 131.659 23.0818C130.521 23.1037 129.225 22.5787 128.952 20.6318H137.346C137.391 20.3475 137.414 20.0631 137.414 19.7568ZM131.659 16.41C132.796 16.4318 133.956 17.0225 134.32 18.5975H128.997C129.384 17.0006 130.544 16.3881 131.659 16.41Z" fill="black"/>
</svg>
