<svg width="141" height="30" viewBox="0 0 141 30" fill="none" xmlns="http://www.w3.org/2000/svg">
<path d="M5.31609 21.4778C5.31609 24.7114 0.359376 24.7114 0.359376 21.4778L0.359375 3.16349C0.359375 -0.0701203 5.31609 -0.0701206 5.31609 3.16349L5.31609 21.4778Z" fill="black"/>
<path d="M13.3709 27.4337C13.3709 30.6673 8.41421 30.6673 8.41421 27.4337L8.41421 9.11937C8.41421 5.88576 13.3709 5.88576 13.3709 9.11937L13.3709 27.4337Z" fill="black"/>
<path d="M21.4252 21.4778C21.4252 24.7114 16.4685 24.7114 16.4685 21.4778V3.16349C16.4685 -0.0701203 21.4252 -0.0701206 21.4252 3.16349V21.4778Z" fill="black"/>
<path d="M29.48 27.4337C29.48 30.6673 24.5233 30.6673 24.5233 27.4337V9.70894C24.5233 6.47533 29.48 6.47533 29.48 9.70894V27.4337Z" fill="black"/>
<path d="M54.5717 21.6374V25.0665H42.7148V6.88192H54.5717V10.311H46.7363V14.3376H53.5339V17.6108H46.7363V21.6374H54.5717Z" fill="black"/>
<path d="M61.48 25.0665H57.5623V11.532H60.8573L61.1686 13.3764C62.4399 11.9996 63.9447 11.2982 65.7868 11.2982C67.4473 11.2982 68.5629 11.7918 69.2634 12.727C69.471 12.9867 69.6267 13.2465 69.7564 13.5583C71.0796 12.0256 72.5844 11.2982 74.4524 11.2982C76.1648 11.2982 77.3064 11.7918 78.0069 12.727C78.7334 13.6882 78.9409 14.8052 78.9409 17.5589V25.0665H75.0492V18.4421C75.0492 16.8834 74.9454 16.208 74.5303 15.6625C74.0892 15.1429 73.4925 14.9351 72.5585 14.9351C71.7023 14.9351 70.9499 15.1949 70.1715 15.8443C70.2234 16.3379 70.2234 16.8834 70.2234 17.5589V25.0665H66.3057V18.4421C66.3057 16.8834 66.2279 16.208 65.7868 15.6625C65.3717 15.1429 64.775 14.9351 63.8928 14.9351C62.9329 14.9351 62.0507 15.2728 61.48 15.8703V25.0665Z" fill="black"/>
<path d="M88.5408 25.2743C87.5289 25.2743 86.4392 25.0925 85.4014 24.7028L82.4178 25.0665V5.32324H86.3354V13.2985C87.2954 11.9736 88.5927 11.2722 90.3569 11.2722C93.3665 11.2722 95.3902 13.5323 95.3902 17.7667C95.3902 22.5986 92.6401 25.2743 88.5408 25.2743ZM86.3354 16.5198V21.7673C86.9322 22.0271 87.503 22.131 88.0997 22.131C89.9937 22.131 91.3169 20.8841 91.3169 18.1564C91.3169 15.8703 90.331 14.7533 88.904 14.7533C87.7624 14.7533 86.9322 15.3767 86.3354 16.5198Z" fill="black"/>
<path d="M101.791 25.0665H97.8733V5.32324H101.791V25.0665Z" fill="black"/>
<path d="M111.68 25.2743C106.75 25.2743 104.286 22.9883 104.286 18.2603C104.286 13.7401 107.347 11.2722 110.85 11.2722C114.56 11.2722 116.35 13.5063 116.35 17.403C116.35 18.1304 116.298 18.7798 116.246 19.4293H108.281C108.67 21.4556 110.046 22.157 112.562 22.157C113.6 22.157 114.664 22.0531 115.572 21.9232L115.39 25.0146C114.456 25.1704 113.185 25.2743 111.68 25.2743ZM110.746 14.1817C109.397 14.1817 108.411 15.1429 108.203 17.2991L112.64 17.0653C112.64 15.091 112.043 14.1817 110.746 14.1817Z" fill="black"/>
<path d="M122.897 25.0665H118.979V11.532H122.274L122.585 13.3764C123.857 11.9996 125.361 11.2982 127.203 11.2982C128.864 11.2982 129.98 11.7918 130.68 12.727C130.888 12.9867 131.043 13.2465 131.173 13.5583C132.496 12.0256 134.001 11.2982 135.869 11.2982C137.581 11.2982 138.723 11.7918 139.424 12.727C140.15 13.6882 140.358 14.8052 140.358 17.5589V25.0665H136.466V18.4421C136.466 16.8834 136.362 16.208 135.947 15.6625C135.506 15.1429 134.909 14.9351 133.975 14.9351C133.119 14.9351 132.366 15.1949 131.588 15.8443C131.64 16.3379 131.64 16.8834 131.64 17.5589V25.0665H127.722V18.4421C127.722 16.8834 127.645 16.208 127.203 15.6625C126.788 15.1429 126.192 14.9351 125.309 14.9351C124.35 14.9351 123.467 15.2728 122.897 15.8703V25.0665Z" fill="black"/>
</svg>
