<svg width="113" height="32" viewBox="0 0 113 32" fill="none" xmlns="http://www.w3.org/2000/svg">
<rect y="12.7998" width="6.41893" height="6.39999" fill="black"/>
<rect x="19.2578" y="19.2002" width="6.41893" height="6.39999" transform="rotate(180 19.2578 19.2002)" fill="black"/>
<path opacity="0.4" d="M6.41797 12.8004L12.8369 6.40039V12.8004L6.41797 19.2004V12.8004Z" fill="black"/>
<path opacity="0.6" d="M12.8359 19.1996L6.41701 25.5996L6.41701 19.1996L12.8359 12.7996L12.8359 19.1996Z" fill="black"/>
<path opacity="0.8" d="M0 12.8L12.8379 0V6.39999L6.41893 12.8H0Z" fill="black"/>
<path opacity="0.8" d="M19.2578 19.2L6.41995 32L6.41995 25.6L12.8389 19.2L19.2578 19.2Z" fill="black"/>
<path d="M33.2376 22.8532C32.2266 22.8532 31.2468 22.7101 30.2982 22.4239C29.3621 22.1376 28.6195 21.7581 28.0703 21.2852L28.9128 19.3999C29.4495 19.823 30.1048 20.1714 30.8786 20.4452C31.6649 20.7065 32.4512 20.8372 33.2376 20.8372C34.2111 20.8372 34.935 20.6816 35.4093 20.3705C35.8961 20.0594 36.1394 19.6487 36.1394 19.1385C36.1394 18.7652 36.0022 18.4603 35.7276 18.2239C35.4655 17.975 35.1285 17.7821 34.7166 17.6452C34.3047 17.5083 33.743 17.3527 33.0316 17.1785C32.0331 16.9421 31.2218 16.7056 30.5978 16.4692C29.9862 16.2327 29.4557 15.8656 29.0064 15.3679C28.5696 14.8576 28.3511 14.1732 28.3511 13.3145C28.3511 12.5927 28.5446 11.9394 28.9315 11.3545C29.3309 10.7572 29.9238 10.2843 30.7101 9.93586C31.5089 9.58741 32.4824 9.41319 33.6307 9.41319C34.4295 9.41319 35.2158 9.51275 35.9897 9.71186C36.7635 9.91097 37.4313 10.1972 37.9929 10.5705L37.2253 12.4559C36.6512 12.1199 36.0521 11.8647 35.428 11.6905C34.804 11.5163 34.1986 11.4292 33.612 11.4292C32.6509 11.4292 31.9333 11.591 31.459 11.9145C30.9972 12.2381 30.7663 12.6674 30.7663 13.2025C30.7663 13.5759 30.8973 13.8807 31.1594 14.1172C31.434 14.3536 31.7772 14.5403 32.1891 14.6772C32.601 14.8141 33.1627 14.9696 33.8741 15.1439C34.8476 15.3679 35.6464 15.6043 36.2705 15.8532C36.8946 16.0896 37.425 16.4567 37.8619 16.9545C38.3112 17.4523 38.5359 18.1243 38.5359 18.9705C38.5359 19.6923 38.3361 20.3456 37.9367 20.9305C37.5498 21.5154 36.957 21.9821 36.1582 22.3305C35.3594 22.679 34.3858 22.8532 33.2376 22.8532Z" fill="black"/>
<path d="M40.7246 12.6985H43.0648V22.6665H40.7246V12.6985ZM41.904 11.0559C41.4797 11.0559 41.124 10.9252 40.8369 10.6639C40.5498 10.3901 40.4063 10.0541 40.4063 9.65586C40.4063 9.25764 40.5498 8.92786 40.8369 8.66653C41.124 8.39275 41.4797 8.25586 41.904 8.25586C42.3284 8.25586 42.6841 8.38653 42.9712 8.64786C43.2583 8.89675 43.4018 9.21408 43.4018 9.59986C43.4018 10.0105 43.2583 10.359 42.9712 10.6452C42.6966 10.919 42.3409 11.0559 41.904 11.0559Z" fill="black"/>
<path d="M49.2255 22.7972C48.4142 22.7972 47.6216 22.6914 46.8478 22.4799C46.0739 22.2683 45.4561 22.0007 44.9943 21.6772L45.893 19.9039C46.3423 20.2025 46.879 20.4452 47.503 20.6319C48.1396 20.8061 48.7637 20.8932 49.3752 20.8932C50.7731 20.8932 51.4721 20.5261 51.4721 19.7919C51.4721 19.4434 51.2911 19.2007 50.9292 19.0639C50.5797 18.927 50.0118 18.7963 49.2255 18.6719C48.4017 18.5474 47.7277 18.4043 47.2035 18.2425C46.6918 18.0807 46.2424 17.8007 45.8555 17.4025C45.4811 16.9919 45.2939 16.4256 45.2939 15.7039C45.2939 14.7581 45.687 14.0052 46.4733 13.4452C47.2721 12.8727 48.3455 12.5865 49.6935 12.5865C50.38 12.5865 51.0665 12.6674 51.7529 12.8292C52.4394 12.9785 53.001 13.1839 53.4379 13.4452L52.5392 15.2185C51.6905 14.7207 50.7357 14.4719 49.6748 14.4719C48.9883 14.4719 48.4641 14.5776 48.1021 14.7892C47.7527 14.9883 47.5779 15.2559 47.5779 15.5919C47.5779 15.9652 47.7652 16.2327 48.1396 16.3945C48.5265 16.5439 49.1194 16.687 49.9182 16.8239C50.717 16.9483 51.3722 17.0914 51.884 17.2532C52.3957 17.415 52.8325 17.6887 53.1945 18.0745C53.5689 18.4603 53.7562 19.0079 53.7562 19.7172C53.7562 20.6505 53.3505 21.3972 52.5392 21.9572C51.728 22.5172 50.6234 22.7972 49.2255 22.7972Z" fill="black"/>
<path d="M64.9497 12.6985L60.2692 23.4692C59.8323 24.5519 59.3019 25.311 58.6778 25.7465C58.0538 26.1945 57.2986 26.4185 56.4125 26.4185C55.9132 26.4185 55.4202 26.3376 54.9334 26.1759C54.4467 26.0141 54.0473 25.7901 53.7352 25.5039L54.6713 23.7865C54.896 23.9981 55.1581 24.1661 55.4577 24.2905C55.7697 24.415 56.0817 24.4772 56.3938 24.4772C56.8056 24.4772 57.1426 24.3714 57.4047 24.1599C57.6793 23.9483 57.9289 23.5936 58.1536 23.0959L58.3221 22.7039L53.9599 12.6985H56.3938L59.539 20.0719L62.703 12.6985H64.9497Z" fill="black"/>
<path d="M71.954 12.5865C72.9275 12.5865 73.795 12.7981 74.5563 13.2212C75.3302 13.6443 75.9355 14.2416 76.3723 15.0132C76.8092 15.7847 77.0276 16.6745 77.0276 17.6825C77.0276 18.6905 76.8092 19.5865 76.3723 20.3705C75.9355 21.1421 75.3302 21.7394 74.5563 22.1625C73.795 22.5856 72.9275 22.7972 71.954 22.7972C70.606 22.7972 69.5389 22.3492 68.7525 21.4532V26.2879H66.4123V12.6985H68.6402V14.0052C69.0271 13.5323 69.5014 13.1776 70.0631 12.9412C70.6372 12.7047 71.2675 12.5865 71.954 12.5865ZM71.6919 20.7999C72.5531 20.7999 73.2583 20.5136 73.8075 19.9412C74.3691 19.3687 74.6499 18.6159 74.6499 17.6825C74.6499 16.7492 74.3691 15.9963 73.8075 15.4239C73.2583 14.8514 72.5531 14.5652 71.6919 14.5652C71.1302 14.5652 70.6247 14.6959 70.1754 14.9572C69.7261 15.2061 69.3704 15.567 69.1083 16.0399C68.8461 16.5127 68.7151 17.0603 68.7151 17.6825C68.7151 18.3047 68.8461 18.8523 69.1083 19.3252C69.3704 19.7981 69.7261 20.1652 70.1754 20.4265C70.6247 20.6754 71.1302 20.7999 71.6919 20.7999Z" fill="black"/>
<path d="M84.9198 12.5865C86.1804 12.5865 87.1914 12.9536 87.9527 13.6879C88.7141 14.4221 89.0948 15.511 89.0948 16.9545V22.6665H86.7545V17.2532C86.7545 16.3821 86.5486 15.7287 86.1367 15.2932C85.7248 14.8452 85.1382 14.6212 84.3768 14.6212C83.5156 14.6212 82.8354 14.8825 82.3361 15.4052C81.8369 15.9154 81.5873 16.6559 81.5873 17.6265V22.6665H79.247V8.81586H81.5873V13.8559C81.9742 13.4452 82.4485 13.1341 83.0101 12.9225C83.5843 12.6985 84.2208 12.5865 84.9198 12.5865Z" fill="black"/>
<path d="M101.743 12.6985V22.6665H99.5148V21.3972C99.1404 21.8452 98.6723 22.1936 98.1107 22.4425C97.549 22.679 96.9437 22.7972 96.2946 22.7972C94.9591 22.7972 93.9045 22.4301 93.1306 21.6959C92.3693 20.9492 91.9886 19.8479 91.9886 18.3919V12.6985H94.3288V18.0745C94.3288 18.9705 94.5285 19.6425 94.9279 20.0905C95.3398 20.5261 95.9202 20.7439 96.6691 20.7439C97.5053 20.7439 98.1668 20.4887 98.6536 19.9785C99.1528 19.4559 99.4025 18.7092 99.4025 17.7385V12.6985H101.743Z" fill="black"/>
<path d="M107.896 22.7972C107.085 22.7972 106.292 22.6914 105.518 22.4799C104.744 22.2683 104.127 22.0007 103.665 21.6772L104.563 19.9039C105.013 20.2025 105.549 20.4452 106.174 20.6319C106.81 20.8061 107.434 20.8932 108.046 20.8932C109.444 20.8932 110.143 20.5261 110.143 19.7919C110.143 19.4434 109.962 19.2007 109.6 19.0639C109.25 18.927 108.682 18.7963 107.896 18.6719C107.072 18.5474 106.398 18.4043 105.874 18.2425C105.362 18.0807 104.913 17.8007 104.526 17.4025C104.152 16.9919 103.964 16.4256 103.964 15.7039C103.964 14.7581 104.357 14.0052 105.144 13.4452C105.943 12.8727 107.016 12.5865 108.364 12.5865C109.05 12.5865 109.737 12.6674 110.423 12.8292C111.11 12.9785 111.672 13.1839 112.108 13.4452L111.21 15.2185C110.361 14.7207 109.406 14.4719 108.345 14.4719C107.659 14.4719 107.135 14.5776 106.773 14.7892C106.423 14.9883 106.248 15.2559 106.248 15.5919C106.248 15.9652 106.436 16.2327 106.81 16.3945C107.197 16.5439 107.79 16.687 108.589 16.8239C109.387 16.9483 110.043 17.0914 110.554 17.2532C111.066 17.415 111.503 17.6887 111.865 18.0745C112.239 18.4603 112.427 19.0079 112.427 19.7172C112.427 20.6505 112.021 21.3972 111.21 21.9572C110.398 22.5172 109.294 22.7972 107.896 22.7972Z" fill="black"/>
</svg>
