<svg width="20" height="21" viewBox="0 0 20 21" fill="none" xmlns="http://www.w3.org/2000/svg">
<path d="M18.3346 10.5007C18.3346 5.89828 14.6037 2.16732 10.0013 2.16732C5.39893 2.16732 1.66797 5.89828 1.66797 10.5007C1.66797 15.103 5.39893 18.834 10.0013 18.834C14.6037 18.834 18.3346 15.103 18.3346 10.5007Z" stroke="#652EDA" stroke-width="1.5"/>
<path d="M10 2.16699V3.83366" stroke="#652EDA" stroke-width="1.5" stroke-linecap="round"/>
<path d="M18.3359 10.5L16.6693 10.5" stroke="#652EDA" stroke-width="1.5" stroke-linecap="round"/>
<path d="M10 17.167L10 18.8337" stroke="#652EDA" stroke-width="1.5" stroke-linecap="round"/>
<path d="M3.33594 10.5H1.66927" stroke="#652EDA" stroke-width="1.5" stroke-linecap="round"/>
<path d="M10.0026 8.00033C9.08213 8.00033 8.33594 8.55997 8.33594 9.25033C8.33594 9.94068 9.08213 10.5003 10.0026 10.5003C10.9231 10.5003 11.6693 11.06 11.6693 11.7503C11.6693 12.4407 10.9231 13.0003 10.0026 13.0003M10.0026 8.00033C10.7283 8.00033 11.3456 8.34816 11.5744 8.83366M10.0026 8.00033V7.16699M10.0026 13.0003C9.27693 13.0003 8.65957 12.6525 8.43077 12.167M10.0026 13.0003V13.8337" stroke="#652EDA" stroke-width="1.5" stroke-linecap="round"/>
</svg>
