<svg width="20" height="21" viewBox="0 0 20 21" fill="none" xmlns="http://www.w3.org/2000/svg">
<path d="M16.4539 11.3336C17.0391 10.4924 17.3924 9.51183 17.4782 8.49069C17.564 7.46955 17.3793 6.44382 16.9427 5.51676C16.506 4.58969 15.8329 3.79401 14.991 3.2098C14.1491 2.62558 13.1682 2.27345 12.1469 2.18886C11.1257 2.10426 10.1002 2.29018 9.17363 2.72791C8.24708 3.16563 7.45219 3.83971 6.86897 4.68229C6.28575 5.52487 5.93477 6.50622 5.85138 7.52756C5.76799 8.54891 5.95512 9.5742 6.39393 10.5002" stroke="#652EDA" stroke-width="1.5" stroke-linecap="round" stroke-linejoin="round"/>
<path d="M11.6667 5.50033C10.7458 5.50033 10 6.06033 10 6.75033C10 7.44033 10.7458 8.00033 11.6667 8.00033C12.5875 8.00033 13.3333 8.56033 13.3333 9.25033C13.3333 9.94033 12.5875 10.5003 11.6667 10.5003M11.6667 5.50033C12.3917 5.50033 13.01 5.84783 13.2383 6.33366M11.6667 5.50033V4.66699M11.6667 10.5003C10.9417 10.5003 10.3233 10.1528 10.095 9.66699M11.6667 10.5003V11.3337" stroke="#652EDA" stroke-width="1.5" stroke-linecap="round"/>
<path d="M2.5 12.167H4.57167C4.85258 12.1671 5.12892 12.2382 5.375 12.3737L7.08333 13.3128H7.91667C9.16667 13.3128 10 14.2703 10 15.0837L7.76333 15.8287C7.59239 15.8856 7.40761 15.8856 7.23667 15.8287L5 15.0837M10 14.667L13.5083 13.497C13.9117 13.3624 14.3513 13.3872 14.737 13.5661C15.1228 13.745 15.4255 14.0646 15.5833 14.4595C15.6514 14.6297 15.653 14.8192 15.5879 14.9906C15.5227 15.1619 15.3956 15.3025 15.2317 15.3845L8.91083 18.5445C8.53898 18.7307 8.11096 18.7711 7.71083 18.6578L2.5 17.1828" stroke="#652EDA" stroke-width="1.5" stroke-linecap="round" stroke-linejoin="round"/>
</svg>
