<svg width="20" height="21" viewBox="0 0 20 21" fill="none" xmlns="http://www.w3.org/2000/svg">
<path d="M2.5 8.83398L2.5 13.0007C2.5 15.3577 2.5 16.5362 3.23223 17.2684C3.96447 18.0007 5.14298 18.0007 7.5 18.0007H10.4167M17.5 8.83398V10.084" stroke="#652EDA" stroke-width="1.5" stroke-linecap="round"/>
<path d="M2.42796 4.44623L1.71403 4.21644L1.71403 4.21644L2.42796 4.44623ZM1.85819 6.21643L2.57212 6.44622L2.57212 6.44622L1.85819 6.21643ZM17.5746 4.44623L16.8607 4.67602L16.8607 4.67603L17.5746 4.44623ZM18.1444 6.21643L18.8583 5.98664L18.8583 5.98664L18.1444 6.21643ZM8.13722 8.14014C7.8462 7.84538 7.37133 7.84235 7.07658 8.13337C6.78182 8.42439 6.77879 8.89926 7.06981 9.19401L8.13722 8.14014ZM12.9329 8.1397C12.642 7.84487 12.1671 7.84173 11.8723 8.13268C11.5775 8.42363 11.5743 8.89849 11.8653 9.19332L12.9329 8.1397ZM1.98074 8.05869L2.58875 7.61956L2.58875 7.61956L1.98074 8.05869ZM9.18288 7.35518C9.28681 6.95421 9.04602 6.54492 8.64506 6.44098C8.24409 6.33705 7.83479 6.57785 7.73086 6.97881L9.18288 7.35518ZM13.9779 7.35518C14.0818 6.95421 13.841 6.54492 13.4401 6.44098C13.0391 6.33705 12.6298 6.57785 12.5259 6.97881L13.9779 7.35518ZM18.0219 8.05869L17.4139 7.61956L17.4139 7.61956L18.0219 8.05869ZM18.3126 7.33922L17.5715 7.22358L17.5715 7.22358L18.3126 7.33922ZM1.69005 7.33922L0.949022 7.45486L0.949022 7.45486L1.69005 7.33922ZM3.38053 2.48159L2.9319 1.88056L2.9319 1.88056L3.38053 2.48159ZM1.71403 4.21644L1.14426 5.98664L2.57212 6.44622L3.14189 4.67603L1.71403 4.21644ZM16.8607 4.67603L17.4305 6.44622L18.8583 5.98664L18.2886 4.21644L16.8607 4.67603ZM5.48148 2.91699H14.5211V1.41699H5.48148V2.91699ZM10.0007 8.91699C9.2696 8.91699 8.61076 8.61977 8.13722 8.14014L7.06981 9.19401C7.81476 9.94853 8.85385 10.417 10.0007 10.417V8.91699ZM14.7969 8.91699C14.0655 8.91699 13.4065 8.61959 12.9329 8.1397L11.8653 9.19332C12.6103 9.94824 13.6496 10.417 14.7969 10.417V8.91699ZM5.20572 8.91699C4.21516 8.91699 3.13644 8.37787 2.58875 7.61956L1.37274 8.49782C2.21764 9.66763 3.76007 10.417 5.20572 10.417V8.91699ZM7.73086 6.97881C7.44268 8.09061 6.42311 8.91699 5.20572 8.91699V10.417C7.1167 10.417 8.72576 9.11875 9.18288 7.35518L7.73086 6.97881ZM12.5259 6.97881C12.2377 8.09061 11.2181 8.91699 10.0007 8.91699V10.417C11.9117 10.417 13.5208 9.11875 13.9779 7.35518L12.5259 6.97881ZM17.4139 7.61956C16.8662 8.37787 15.7875 8.91699 14.7969 8.91699V10.417C16.2425 10.417 17.785 9.66763 18.6299 8.49782L17.4139 7.61956ZM17.4305 6.44622C17.5868 6.93171 17.6041 7.01479 17.5715 7.22358L19.0536 7.45486C19.1472 6.85492 19.0104 6.45905 18.8583 5.98664L17.4305 6.44622ZM18.6299 8.49782C18.6994 8.40155 18.8033 8.2619 18.8858 8.07649C18.9693 7.88856 19.0171 7.68885 19.0536 7.45486L17.5715 7.22358C17.5449 7.39395 17.5232 7.44894 17.5151 7.46713C17.5059 7.48785 17.4961 7.50575 17.4139 7.61956L18.6299 8.49782ZM18.2886 4.21644C18.1167 3.68252 17.97 3.22322 17.8078 2.86205C17.6383 2.48484 17.4221 2.14285 17.0707 1.88056L16.1734 3.08262C16.2435 3.13492 16.3265 3.22524 16.4395 3.47669C16.5597 3.74419 16.6785 4.10992 16.8607 4.67602L18.2886 4.21644ZM14.5211 2.91699C15.0988 2.91699 15.4669 2.91821 15.7454 2.95113C16.003 2.98159 16.1056 3.03195 16.1734 3.08262L17.0707 1.88056C16.7171 1.61663 16.329 1.50969 15.9215 1.4615C15.5347 1.41578 15.0631 1.41699 14.5211 1.41699V2.91699ZM1.14426 5.98664C0.992205 6.45905 0.855399 6.85492 0.949022 7.45486L2.43108 7.22358C2.3985 7.01479 2.41586 6.93171 2.57212 6.44622L1.14426 5.98664ZM2.58875 7.61956C2.50655 7.50575 2.4967 7.48785 2.48749 7.46713C2.4794 7.44893 2.45767 7.39395 2.43108 7.22358L0.949022 7.45486C0.985537 7.68885 1.03329 7.88856 1.11684 8.07649C1.19927 8.2619 1.30321 8.40155 1.37274 8.49782L2.58875 7.61956ZM3.14189 4.67603C3.32411 4.10992 3.44295 3.74419 3.56311 3.47669C3.67607 3.22524 3.75908 3.13492 3.82916 3.08262L2.9319 1.88056C2.58051 2.14285 2.36427 2.48484 2.19483 2.86205C2.03259 3.22322 1.88589 3.68252 1.71403 4.21644L3.14189 4.67603ZM5.48148 1.41699C4.93953 1.41699 4.46787 1.41578 4.08112 1.4615C3.67357 1.50969 3.28549 1.61663 2.9319 1.88056L3.82916 3.08262C3.89704 3.03195 3.99961 2.98159 4.25725 2.95113C4.5357 2.91821 4.90378 2.91699 5.48148 2.91699V1.41699Z" fill="#652EDA"/>
<path d="M17.5 8.83398V10.9173" stroke="#652EDA" stroke-width="1.5" stroke-linecap="round"/>
<path d="M12.5 15.9167H18.3333M15.4167 18.8333L15.4167 13" stroke="#652EDA" stroke-width="1.5" stroke-linecap="round"/>
<path d="M5.83594 14.667H9.16927" stroke="#652EDA" stroke-width="1.5" stroke-linecap="round"/>
</svg>
