<svg width="20" height="20" viewBox="0 0 20 20" fill="none" xmlns="http://www.w3.org/2000/svg">
<g clip-path="url(#clip0_10200_113999)">
<path d="M17.0695 2.93055C13.1625 -0.976535 6.83816 -0.977162 2.93053 2.93055C-0.976549 6.83755 -0.977137 13.1618 2.93053 17.0694C6.83753 20.9765 13.1618 20.9771 17.0695 17.0694C20.9765 13.1624 20.9771 6.83817 17.0695 2.93055ZM18.8015 9.41187H15.8811V10.294C15.8811 10.7804 15.4853 11.1762 14.9989 11.1762C14.5125 11.1762 14.1168 10.7804 14.1168 10.294V9.41187H10.5881V7.03852C11.5843 6.89542 12.3524 6.03624 12.3524 5.0011C12.3524 3.96596 11.5843 3.10682 10.5881 2.96368V1.1985C14.9847 1.48934 18.5106 5.01537 18.8015 9.41187ZM9.41189 1.1985V4.11894H10.294C10.7805 4.11894 11.1762 4.5147 11.1762 5.0011C11.1762 5.4875 10.7805 5.88325 10.294 5.88325H9.41189V9.41187H7.03854C6.89544 8.4157 6.03626 7.64756 5.00112 7.64756C3.96598 7.64756 3.10684 8.4157 2.9637 9.41187H1.19857C1.4894 5.01537 5.01535 1.48934 9.41189 1.1985ZM1.19857 10.5881H4.11901V9.70592C4.11901 9.21952 4.51472 8.82377 5.00116 8.82377C5.4876 8.82377 5.88332 9.21952 5.88332 9.70592V10.5881H9.41193V12.9614C8.41572 13.1045 7.64762 13.9637 7.64762 14.9988C7.64762 16.034 8.41572 16.8931 9.41193 17.0363V18.8014C5.01535 18.5106 1.4894 14.9846 1.19857 10.5881ZM10.5881 18.8015V15.881H9.70594C9.2195 15.881 8.82379 15.4853 8.82379 14.9989C8.82379 14.5125 9.2195 14.1167 9.70594 14.1167H10.5881V10.5881H12.9614C13.1045 11.5843 13.9637 12.3524 14.9989 12.3524C16.034 12.3524 16.8931 11.5843 17.0363 10.5881H18.8015C18.5106 14.9846 14.9847 18.5106 10.5881 18.8015Z" fill="#652EDA"/>
</g>
<defs>
<clipPath id="clip0_10200_113999">
<rect width="20" height="20" fill="white"/>
</clipPath>
</defs>
</svg>
