<svg width="20" height="21" viewBox="0 0 20 21" fill="none" xmlns="http://www.w3.org/2000/svg">
<path d="M12.082 15.0833V6.75H6.24873C4.28456 6.75 3.30248 6.75 2.69229 7.36018C2.08209 7.97037 2.08208 8.95242 2.08206 10.9167L2.08203 14.25C2.08201 16.2142 2.08201 17.1963 2.6922 17.8065C3.3024 18.4167 4.2845 18.4167 6.2487 18.4167H8.74865C10.32 18.4167 11.1056 18.4167 11.5938 17.9285C12.082 17.4403 12.082 16.6547 12.082 15.0833Z" stroke="#652EDA" stroke-width="1.5" stroke-linecap="round" stroke-linejoin="round"/>
<path d="M12.0845 14.2497H13.7512C15.7153 14.2497 16.6975 14.2497 17.3077 13.6395C17.9178 13.0293 17.9178 12.0472 17.9178 10.083V6.74967C17.9178 4.78549 17.9178 3.8034 17.3077 3.1932C16.6975 2.58301 15.7153 2.58301 13.7512 2.58301H7.91797L7.91809 6.74967" stroke="#652EDA" stroke-width="1.5" stroke-linecap="round" stroke-linejoin="round"/>
<path d="M4.58203 10.917H7.4987M4.58203 14.2503H9.58206" stroke="#652EDA" stroke-width="1.5" stroke-linecap="round" stroke-linejoin="round"/>
<path d="M7.91797 2.58301L12.0847 6.74967" stroke="#652EDA" stroke-width="1.5" stroke-linecap="round" stroke-linejoin="round"/>
</svg>
