<svg width="20" height="21" viewBox="0 0 20 21" fill="none" xmlns="http://www.w3.org/2000/svg">
<path d="M2.91797 10.917V16.7503C2.91797 17.1386 2.91797 17.3327 2.9814 17.4859C3.06598 17.6901 3.22821 17.8523 3.4324 17.9369C3.58554 18.0003 3.77969 18.0003 4.16797 18.0003C4.55625 18.0003 4.75039 18.0003 4.90354 17.9369C5.10773 17.8523 5.26996 17.6901 5.35454 17.4859C5.41797 17.3327 5.41797 17.1386 5.41797 16.7503V10.917C5.41797 10.5287 5.41797 10.3346 5.35454 10.1814C5.26996 9.97724 5.10773 9.81499 4.90354 9.73041C4.75039 9.66699 4.55625 9.66699 4.16797 9.66699C3.77969 9.66699 3.58554 9.66699 3.4324 9.73041C3.22821 9.81499 3.06598 9.97724 2.9814 10.1814C2.91797 10.3346 2.91797 10.5287 2.91797 10.917Z" stroke="#652EDA" stroke-width="1.5" stroke-linecap="square" stroke-linejoin="round"/>
<path d="M8.75 12.583V16.7493C8.75 17.1375 8.75 17.3317 8.81342 17.4848C8.898 17.689 9.06025 17.8513 9.26442 17.9358C9.41758 17.9993 9.61175 17.9993 10 17.9993C10.3882 17.9993 10.5824 17.9993 10.7356 17.9358C10.9397 17.8513 11.102 17.689 11.1866 17.4848C11.25 17.3317 11.25 17.1375 11.25 16.7493V12.583C11.25 12.1948 11.25 12.0006 11.1866 11.8474C11.102 11.6433 10.9397 11.481 10.7356 11.3964C10.5824 11.333 10.3882 11.333 10 11.333C9.61175 11.333 9.41758 11.333 9.26442 11.3964C9.06025 11.481 8.898 11.6433 8.81342 11.8474C8.75 12.0006 8.75 12.1948 8.75 12.583Z" stroke="#652EDA" stroke-width="1.5" stroke-linecap="square" stroke-linejoin="round"/>
<path d="M14.582 9.25V16.75C14.582 17.1382 14.582 17.3324 14.6454 17.4856C14.73 17.6897 14.8923 17.852 15.0964 17.9366C15.2496 18 15.4438 18 15.832 18C16.2203 18 16.4144 18 16.5676 17.9366C16.7718 17.852 16.934 17.6897 17.0186 17.4856C17.082 17.3324 17.082 17.1382 17.082 16.75V9.25C17.082 8.86175 17.082 8.66758 17.0186 8.51443C16.934 8.31024 16.7718 8.14801 16.5676 8.06343C16.4144 8 16.2203 8 15.832 8C15.4438 8 15.2496 8 15.0964 8.06343C14.8923 8.14801 14.73 8.31024 14.6454 8.51443C14.582 8.66758 14.582 8.86175 14.582 9.25Z" stroke="#652EDA" stroke-width="1.5" stroke-linecap="square" stroke-linejoin="round"/>
<path d="M5.41797 5.91699C5.41797 6.60735 4.85833 7.16699 4.16797 7.16699C3.47761 7.16699 2.91797 6.60735 2.91797 5.91699C2.91797 5.22663 3.47761 4.66699 4.16797 4.66699C4.85833 4.66699 5.41797 5.22663 5.41797 5.91699Z" stroke="#652EDA" stroke-width="1.5"/>
<path d="M17.082 4.25C17.082 4.94036 16.5224 5.5 15.832 5.5C15.1417 5.5 14.582 4.94036 14.582 4.25C14.582 3.55964 15.1417 3 15.832 3C16.5224 3 17.082 3.55964 17.082 4.25Z" stroke="#652EDA" stroke-width="1.5"/>
<path d="M11.25 7.58301C11.25 8.27337 10.6903 8.83301 10 8.83301C9.30967 8.83301 8.75 8.27337 8.75 7.58301C8.75 6.89265 9.30967 6.33301 10 6.33301C10.6903 6.33301 11.25 6.89265 11.25 7.58301Z" stroke="#652EDA" stroke-width="1.5"/>
<path d="M5.37109 6.25999L8.79996 7.23968M11.0877 6.96289L14.75 4.87012" stroke="#652EDA" stroke-width="1.5"/>
</svg>
