<svg width="20" height="21" viewBox="0 0 20 21" fill="none" xmlns="http://www.w3.org/2000/svg">
<path d="M17.5013 15.0837C17.5013 16.6945 16.1955 18.0003 14.5846 18.0003C12.9738 18.0003 11.668 16.6945 11.668 15.0837C11.668 13.4728 12.9738 12.167 14.5846 12.167C16.1955 12.167 17.5013 13.4728 17.5013 15.0837Z" stroke="#652EDA" stroke-width="1.5"/>
<path d="M14.5833 12.167H5.41667C3.80583 12.167 2.5 13.4728 2.5 15.0837C2.5 16.6945 3.80583 18.0003 5.41667 18.0003H14.5833C16.1942 18.0003 17.5 16.6945 17.5 15.0837C17.5 13.4728 16.1942 12.167 14.5833 12.167Z" stroke="#652EDA" stroke-width="1.5"/>
<path d="M2.5 5.91667C2.5 7.5275 3.80583 8.83333 5.41667 8.83333C7.0275 8.83333 8.33333 7.5275 8.33333 5.91667C8.33333 4.30583 7.0275 3 5.41667 3C3.80583 3 2.5 4.30583 2.5 5.91667Z" stroke="#652EDA" stroke-width="1.5"/>
<path d="M5.41667 3H14.5833C16.1942 3 17.5 4.30583 17.5 5.91667C17.5 7.5275 16.1942 8.83333 14.5833 8.83333H5.41667C3.80583 8.83333 2.5 7.5275 2.5 5.91667C2.5 4.30583 3.80583 3 5.41667 3Z" stroke="#652EDA" stroke-width="1.5"/>
</svg>
