<svg width="20" height="20" viewBox="0 0 20 20" fill="none" xmlns="http://www.w3.org/2000/svg">
<path d="M16.593 12.9253H12.818C12.597 12.9253 12.385 13.0131 12.2287 13.1694C12.0724 13.3257 11.9846 13.5376 11.9846 13.7587C11.9846 13.9797 12.0724 14.1916 12.2287 14.3479C12.385 14.5042 12.597 14.592 12.818 14.592H14.818C13.8988 15.5526 12.7133 16.2164 11.4139 16.4982C10.1146 16.7799 8.76064 16.6667 7.52612 16.173C6.29159 15.6794 5.23286 14.8279 4.48596 13.728C3.73906 12.628 3.33812 11.3299 3.33464 10.0003C3.33464 9.77931 3.24684 9.56735 3.09056 9.41107C2.93428 9.25479 2.72232 9.16699 2.5013 9.16699C2.28029 9.16699 2.06833 9.25479 1.91205 9.41107C1.75577 9.56735 1.66797 9.77931 1.66797 10.0003C1.67237 11.6277 2.15315 13.2181 3.05097 14.5753C3.94879 15.9326 5.22436 16.9973 6.72025 17.638C8.21615 18.2787 9.86691 18.4674 11.4688 18.1809C13.0707 17.8943 14.5537 17.1449 15.7346 16.0253V17.5003C15.7346 17.7213 15.8224 17.9333 15.9787 18.0896C16.135 18.2459 16.347 18.3337 16.568 18.3337C16.789 18.3337 17.0009 18.2459 17.1572 18.0896C17.3135 17.9333 17.4013 17.7213 17.4013 17.5003V13.7503C17.3992 13.535 17.3139 13.3289 17.1632 13.1751C17.0126 13.0213 16.8082 12.9318 16.593 12.9253ZM10.0013 1.66699C7.86496 1.67309 5.81254 2.49942 4.26797 3.97533V2.50033C4.26797 2.27931 4.18017 2.06735 4.02389 1.91107C3.86761 1.75479 3.65565 1.66699 3.43464 1.66699C3.21362 1.66699 3.00166 1.75479 2.84538 1.91107C2.6891 2.06735 2.6013 2.27931 2.6013 2.50033V6.25033C2.6013 6.47134 2.6891 6.6833 2.84538 6.83958C3.00166 6.99586 3.21362 7.08366 3.43464 7.08366H7.18464C7.40565 7.08366 7.61761 6.99586 7.77389 6.83958C7.93017 6.6833 8.01797 6.47134 8.01797 6.25033C8.01797 6.02931 7.93017 5.81735 7.77389 5.66107C7.61761 5.50479 7.40565 5.41699 7.18464 5.41699H5.18464C6.10336 4.45688 7.28804 3.79324 8.58663 3.51125C9.88522 3.22926 11.2385 3.34178 12.4726 3.83438C13.7068 4.32698 14.7656 5.17717 15.5132 6.27583C16.2607 7.37449 16.6628 8.67148 16.668 10.0003C16.668 10.2213 16.7558 10.4333 16.912 10.5896C17.0683 10.7459 17.2803 10.8337 17.5013 10.8337C17.7223 10.8337 17.9343 10.7459 18.0906 10.5896C18.2468 10.4333 18.3346 10.2213 18.3346 10.0003C18.3346 8.90598 18.1191 7.82234 17.7003 6.8113C17.2815 5.80025 16.6677 4.88159 15.8939 4.10777C15.12 3.33395 14.2014 2.72012 13.1903 2.30133C12.1793 1.88254 11.0957 1.66699 10.0013 1.66699Z" fill="#652EDA"/>
</svg>
