<svg width="20" height="20" viewBox="0 0 20 20" fill="none" xmlns="http://www.w3.org/2000/svg">
<path d="M18.125 5.00019V15.0002C18.1739 15.4224 18.1268 15.8502 17.987 16.2516C17.8473 16.6531 17.6186 17.0177 17.318 17.3182C17.0175 17.6188 16.6529 17.8475 16.2514 17.9872C15.85 18.127 15.4222 18.1741 15 18.1252H10C9.57778 18.1741 9.14997 18.127 8.74855 17.9872C8.34714 17.8475 7.98252 17.6188 7.68197 17.3182C7.38142 17.0177 7.15272 16.6531 7.01297 16.2516C6.87323 15.8502 6.82606 15.4224 6.875 15.0002V14.1669C6.875 14.0011 6.94085 13.8421 7.05806 13.7249C7.17527 13.6077 7.33424 13.5419 7.5 13.5419C7.66576 13.5419 7.82473 13.6077 7.94194 13.7249C8.05915 13.8421 8.125 14.0011 8.125 14.1669V15.0002C8.125 16.3144 8.68583 16.8752 10 16.8752H15C16.3142 16.8752 16.875 16.3144 16.875 15.0002V5.00019C16.875 3.68603 16.3142 3.12519 15 3.12519H10C8.68583 3.12519 8.125 3.68603 8.125 5.00019V5.83353C8.125 5.99929 8.05915 6.15826 7.94194 6.27547C7.82473 6.39268 7.66576 6.45853 7.5 6.45853C7.33424 6.45853 7.17527 6.39268 7.05806 6.27547C6.94085 6.15826 6.875 5.99929 6.875 5.83353V5.00019C6.82606 4.57798 6.87323 4.15016 7.01297 3.74875C7.15272 3.34733 7.38142 2.98271 7.68197 2.68216C7.98252 2.38161 8.34714 2.15291 8.74855 2.01317C9.14997 1.87342 9.57778 1.82626 10 1.87519H15C15.4222 1.82626 15.85 1.87342 16.2514 2.01317C16.6529 2.15291 17.0175 2.38161 17.318 2.68216C17.6186 2.98271 17.8473 3.34733 17.987 3.74875C18.1268 4.15016 18.1739 4.57798 18.125 5.00019ZM10.3917 12.0585C10.3303 12.1157 10.281 12.1847 10.2468 12.2614C10.2127 12.3381 10.1943 12.4208 10.1928 12.5048C10.1914 12.5887 10.2068 12.672 10.2382 12.7499C10.2697 12.8277 10.3165 12.8984 10.3758 12.9577C10.4352 13.0171 10.5058 13.0639 10.5837 13.0953C10.6615 13.1267 10.7448 13.1422 10.8288 13.1407C10.9127 13.1392 10.9954 13.1208 11.0721 13.0867C11.1488 13.0525 11.2178 13.0033 11.275 12.9419L13.775 10.4419C13.8326 10.3833 13.8784 10.3143 13.91 10.2385C13.9733 10.0854 13.9733 9.91335 13.91 9.76019C13.8784 9.68441 13.8326 9.61539 13.775 9.55686L11.275 7.05686C11.1565 6.94646 10.9998 6.88636 10.8379 6.88921C10.676 6.89207 10.5215 6.95766 10.407 7.07218C10.2925 7.18669 10.2269 7.34117 10.224 7.50309C10.2212 7.66501 10.2813 7.82171 10.3917 7.94019L11.8242 9.37353H2.5C2.33424 9.37353 2.17527 9.43937 2.05806 9.55658C1.94085 9.67379 1.875 9.83277 1.875 9.99853C1.875 10.1643 1.94085 10.3233 2.05806 10.4405C2.17527 10.5577 2.33424 10.6235 2.5 10.6235H11.8242L10.3917 12.0585Z" fill="#652EDA"/>
</svg>
